
<svg xmlns="http://www.w3.org/2000/svg" xmlns:xlink="http://www.w3.org/1999/xlink"  width="105px" height="105px" viewBox="0 0 105 105"><defs><style>.cls-1{fill:url(#linear-gradient);}.cls-2{fill:url(#linear-gradient-2);}</style><linearGradient id="linear-gradient" x1="146.48" y1="81.66" x2="153.56" y2="74.59" gradientUnits="userSpaceOnUse"><stop offset="0" stop-color="#f37022"/><stop offset="1" stop-color="#f7cc6a"/></linearGradient><linearGradient id="linear-gradient-2" x1="29.29" y1="170.71" x2="170.71" y2="29.29" xlink:href="#linear-gradient"/></defs><g id="Layer_2" data-name="Layer 2"><g id="Layer_1-2" data-name="Layer 1"><circle class="cls-1" cx="150.02" cy="78.13" r="5"/><path class="cls-2" d="M100,0A100,100,0,1,0,200,100,100,100,0,0,0,100,0Zm45.49,141.83a62.49,62.49,0,0,1-46.05,20.55h-.11A62.47,62.47,0,0,1,52.9,141.61,61.78,61.78,0,0,1,37.33,93.07,62.59,62.59,0,0,1,92,38.05a64.31,64.31,0,0,1,7.32-.43,61.71,61.71,0,0,1,38,13,2.92,2.92,0,0,1,1.14,2.23,3,3,0,0,1-1,2.32l-6.62,5.93a3.82,3.82,0,0,1-2.57,1,3.9,3.9,0,0,1-2.23-.7,46.7,46.7,0,0,0-26.73-8.42A47.19,47.19,0,0,0,64.22,68.71a46.62,46.62,0,0,0-11.64,36.72A47.23,47.23,0,0,0,94,146.76a48.64,48.64,0,0,0,5.38.3,46.66,46.66,0,0,0,33.37-14,3.89,3.89,0,0,1,2.76-1.16,3.79,3.79,0,0,1,2.11.64l7.34,4.82a3,3,0,0,1,.58,4.46ZM150,93.22a15.1,15.1,0,1,1,15.09-15.09A15.08,15.08,0,0,1,150,93.22Z"/></g></g></svg>