<?xml version="1.0" encoding="UTF-8"?>
<svg width="105px" height="105px" viewBox="0 0 105 105" version="1.1" xmlns="http://www.w3.org/2000/svg" xmlns:xlink="http://www.w3.org/1999/xlink">
    <title>Asset 24</title>
    <defs>
        <linearGradient x1="14.6%" y1="85.3%" x2="85.4%" y2="14.6%" id="linearGradient-1">
            <stop stop-color="#F37022" offset="0%"></stop>
            <stop stop-color="#F7CC6A" offset="100%"></stop>
        </linearGradient>
        <linearGradient x1="14.645%" y1="85.355%" x2="85.355%" y2="14.645%" id="linearGradient-2">
            <stop stop-color="#F37022" offset="0%"></stop>
            <stop stop-color="#F7CC6A" offset="100%"></stop>
        </linearGradient>
    </defs>
    <g id="Page-1" stroke="none" stroke-width="1" fill="none" fill-rule="evenodd">
        <g id="Asset-24" fill-rule="nonzero">
            <circle id="Oval" fill="url(#linearGradient-1)" cx="78.7605" cy="41.01825" r="2.625"></circle>
            <path d="M52.5,0 C23.5050506,0 0,23.5050506 0,52.5 C0,81.4949494 23.5050506,105 52.5,105 C81.4949494,105 105,81.4949494 105,52.5 C105,38.5761343 99.4687659,25.2225539 89.623106,15.376894 C79.7774461,5.53123412 66.4238657,0 52.5,0 Z M76.38225,74.46075 C70.1966935,81.2932617 61.4224348,85.2088103 52.206,85.2495 L52.14825,85.2495 C42.8441138,85.2368876 33.983198,81.2730448 27.7725,74.34525 C21.5069057,67.4232077 18.52815,58.1368364 19.59825,48.86175 C21.3277412,33.7512073 33.2008019,21.8021348 48.3,19.97625 C49.575664,19.8279721 50.8587491,19.7525996 52.143,19.7504462 C59.3679861,19.7373398 66.3900521,22.1396255 72.093,26.5755 C72.4582279,26.8560396 72.6779832,27.2859119 72.6915,27.74625 C72.7043137,28.209735 72.5122516,28.6553191 72.1665,28.96425 L68.691,32.0775 C68.3223099,32.414398 67.8411815,32.6016075 67.34175,32.6025 C66.9231065,32.6025698 66.5145023,32.4743084 66.171,32.235 C62.0561114,29.3595839 57.1577422,27.8165884 52.13775,27.8145 C45.1030429,27.8269349 38.4053011,30.8293709 33.7155,36.07275 C28.994807,41.3174097 26.7673335,48.3442851 27.6045,55.35075 C28.9602416,66.7432872 37.9545407,75.7180429 49.35,77.049 C50.2878665,77.1536496 51.230813,77.2062303 52.1745,77.2065 C58.76522,77.2130134 65.0805295,74.5634979 69.69375,69.8565 C70.0761626,69.4683205 70.5978461,69.2490623 71.14275,69.2475 C71.5371392,69.2472411 71.9227095,69.3641913 72.2505,69.5835 L76.104,72.114 C76.4783096,72.3668123 76.7260625,72.7681623 76.7843116,73.2160783 C76.8425608,73.6639943 76.7056994,74.1153614 76.4085,74.4555 L76.38225,74.46075 Z M78.75,48.9405017 C75.542671,48.9426234 72.6500741,47.0119286 71.4217014,44.0491489 C70.1933286,41.0863691 70.8712382,37.6753373 73.1391627,35.4074127 C75.4070873,33.1394882 78.8181191,32.4615786 81.7808989,33.6899514 C84.7436786,34.9183241 86.6743734,37.810921 86.6722517,41.01825 C86.6736441,43.1197884 85.8394285,45.1356538 84.3534161,46.6216661 C82.8674038,48.1076785 80.8515384,48.9418941 78.75,48.9405017 L78.75,48.9405017 Z" id="Shape" fill="url(#linearGradient-2)"></path>
        </g>
    </g>
</svg>