<svg xmlns="http://www.w3.org/2000/svg" xmlns:xlink="http://www.w3.org/1999/xlink" id="Layer_1" data-name="Layer 1" viewBox="0 0 1920 1080"><defs><style>.cls-1,.cls-5{fill:none;}.cls-2{clip-path:url(#clip-path);}.cls-3,.cls-6,.cls-9{fill:#fff;}.cls-4{fill:#f6f9fc;}.cls-5,.cls-6{stroke:#e1e1e1;stroke-width:4px;}.cls-7{fill:#6c6c6c;}.cls-10,.cls-8{fill:#f76c1d;}.cls-9{fill-rule:evenodd;}.cls-10{font-size:51px;font-family:Arial-BoldMT, Arial;font-weight:700;}</style><clipPath id="clip-path"><rect class="cls-1" width="1920" height="1080"/></clipPath></defs><g class="cls-2"><rect class="cls-3" width="1920" height="1080"/><rect class="cls-4" y="435" width="1920" height="588"/><path class="cls-5" d="M359.33,343V3290.35"/><path class="cls-5" d="M941.33,343V3290.35"/><path class="cls-5" d="M1521.33,343V3290.35"/><path class="cls-6" d="M359,525h0a22,22,0,0,1,22,22V895a22,22,0,0,1-22,22h0a22,22,0,0,1-22-22V547A22,22,0,0,1,359,525Z"/><path class="cls-6" d="M941,525h0a22,22,0,0,1,22,22V895a22,22,0,0,1-22,22h0a22,22,0,0,1-22-22V547A22,22,0,0,1,941,525Z"/><path class="cls-6" d="M1521,697h0a22,22,0,0,1,22,22V895a22,22,0,0,1-22,22h0a22,22,0,0,1-22-22V719A22,22,0,0,1,1521,697Z"/><path class="cls-7" d="M390,561a2,2,0,0,0,0,4Zm520,2-20-11.55v23.1Zm-514.09,2a2,2,0,1,0,0-4Zm11.82-4a2,2,0,0,0,0,4Zm11.82,4a2,2,0,0,0,0-4Zm11.81-4a2,2,0,0,0,0,4Zm11.82,4a2,2,0,1,0,0-4ZM455,561a2,2,0,0,0,0,4Zm11.82,4a2,2,0,0,0,0-4Zm11.82-4a2,2,0,1,0,0,4Zm11.81,4a2,2,0,1,0,0-4Zm11.82-4a2,2,0,0,0,0,4Zm11.82,4a2,2,0,1,0,0-4Zm11.82-4a2,2,0,1,0,0,4Zm11.82,4a2,2,0,0,0,0-4Zm11.81-4a2,2,0,0,0,0,4Zm11.82,4a2,2,0,1,0,0-4Zm11.82-4a2,2,0,1,0,0,4ZM585,565a2,2,0,0,0,0-4Zm11.82-4a2,2,0,0,0,0,4Zm11.82,4a2,2,0,0,0,0-4Zm11.82-4a2,2,0,0,0,0,4Zm11.81,4a2,2,0,0,0,0-4Zm11.82-4a2,2,0,0,0,0,4Zm11.82,4a2,2,0,0,0,0-4Zm11.82-4a2,2,0,0,0,0,4Zm11.81,4a2,2,0,0,0,0-4Zm11.82-4a2,2,0,0,0,0,4Zm11.82,4a2,2,0,0,0,0-4ZM715,561a2,2,0,0,0,0,4Zm11.82,4a2,2,0,1,0,0-4Zm11.82-4a2,2,0,1,0,0,4Zm11.81,4a2,2,0,0,0,0-4Zm11.82-4a2,2,0,0,0,0,4Zm11.82,4a2,2,0,1,0,0-4Zm11.82-4a2,2,0,1,0,0,4Zm11.82,4a2,2,0,0,0,0-4Zm11.81-4a2,2,0,0,0,0,4Zm11.82,4a2,2,0,1,0,0-4Zm11.82-4a2,2,0,1,0,0,4ZM845,565a2,2,0,0,0,0-4Zm11.82-4a2,2,0,0,0,0,4Zm11.82,4a2,2,0,0,0,0-4Zm11.81-4a2,2,0,0,0,0,4Zm11.82,4a2,2,0,0,0,0-4Zm11.82-4a2,2,0,0,0,0,4ZM390,565h5.91v-4H390Zm17.73,0h11.82v-4H407.73Zm23.63,0h11.82v-4H431.36ZM455,565h11.82v-4H455Zm23.64,0h11.81v-4H478.64Zm23.63,0h11.82v-4H502.27Zm23.64,0h11.82v-4H525.91Zm23.63,0h11.82v-4H549.54Zm23.64,0H585v-4H573.18Zm23.64,0h11.82v-4H596.82Zm23.64,0h11.81v-4H620.46Zm23.63,0h11.82v-4H644.09Zm23.64,0h11.81v-4H667.73Zm23.63,0h11.82v-4H691.36ZM715,565h11.82v-4H715Zm23.64,0h11.81v-4H738.64Zm23.63,0h11.82v-4H762.27Zm23.64,0h11.82v-4H785.91Zm23.63,0h11.82v-4H809.54Zm23.64,0H845v-4H833.18Zm23.64,0h11.82v-4H856.82Zm23.63,0h11.82v-4H880.45Z"/><path class="cls-7" d="M972,728.25a2,2,0,0,0,0,4Zm520,2-20-11.55v23.1Zm-514.09,2a2,2,0,0,0,0-4Zm11.82-4a2,2,0,0,0,0,4Zm11.82,4a2,2,0,0,0,0-4Zm11.81-4a2,2,0,0,0,0,4Zm11.82,4a2,2,0,0,0,0-4Zm11.82-4a2,2,0,0,0,0,4Zm11.82,4a2,2,0,0,0,0-4Zm11.82-4a2,2,0,0,0,0,4Zm11.81,4a2,2,0,0,0,0-4Zm11.82-4a2,2,0,0,0,0,4Zm11.82,4a2,2,0,0,0,0-4Zm11.82-4a2,2,0,0,0,0,4Zm11.82,4a2,2,0,0,0,0-4Zm11.82-4a2,2,0,0,0,0,4Zm11.81,4a2,2,0,0,0,0-4Zm11.82-4a2,2,0,0,0,0,4Zm11.82,4a2,2,0,0,0,0-4Zm11.82-4a2,2,0,0,0,0,4Zm11.82,4a2,2,0,0,0,0-4Zm11.81-4a2,2,0,0,0,0,4Zm11.82,4a2,2,0,0,0,0-4Zm11.82-4a2,2,0,0,0,0,4Zm11.82,4a2,2,0,0,0,0-4Zm11.82-4a2,2,0,0,0,0,4Zm11.82,4a2,2,0,0,0,0-4Zm11.81-4a2,2,0,0,0,0,4Zm11.82,4a2,2,0,0,0,0-4Zm11.82-4a2,2,0,0,0,0,4Zm11.82,4a2,2,0,0,0,0-4Zm11.82-4a2,2,0,0,0,0,4Zm11.81,4a2,2,0,0,0,0-4Zm11.82-4a2,2,0,0,0,0,4Zm11.82,4a2,2,0,1,0,0-4Zm11.82-4a2,2,0,1,0,0,4Zm11.82,4a2,2,0,0,0,0-4Zm11.82-4a2,2,0,0,0,0,4Zm11.81,4a2,2,0,0,0,0-4Zm11.82-4a2,2,0,0,0,0,4Zm11.82,4a2,2,0,0,0,0-4Zm11.82-4a2,2,0,1,0,0,4Zm11.82,4a2,2,0,1,0,0-4Zm11.81-4a2,2,0,1,0,0,4Zm11.82,4a2,2,0,0,0,0-4Zm11.82-4a2,2,0,0,0,0,4Zm-514.09,4h5.91v-4H972Zm17.73,0h11.82v-4H989.73Zm23.63,0h11.82v-4h-11.82Zm23.64,0h11.82v-4H1037Zm23.64,0h11.81v-4h-11.81Zm23.63,0h11.82v-4h-11.82Zm23.64,0h11.82v-4h-11.82Zm23.64,0h11.81v-4h-11.81Zm23.63,0H1167v-4h-11.82Zm23.64,0h11.82v-4h-11.82Zm23.63,0h11.82v-4h-11.82Zm23.64,0h11.82v-4h-11.82Zm23.64,0h11.82v-4h-11.82Zm23.63,0h11.82v-4h-11.82Zm23.64,0h11.82v-4H1297Zm23.64,0h11.81v-4h-11.81Zm23.63,0h11.82v-4h-11.82Zm23.64,0h11.82v-4h-11.82Zm23.64,0h11.81v-4h-11.81Zm23.63,0H1427v-4h-11.82Zm23.64,0h11.82v-4h-11.82Zm23.63,0h11.82v-4h-11.82Z"/><path class="cls-7" d="M910,886.25a2,2,0,0,1,0,4Zm-520,2,20-11.55v23.1Zm514.09,2a2,2,0,0,1,0-4Zm-11.82-4a2,2,0,0,1,0,4Zm-11.81,4a2,2,0,0,1,0-4Zm-11.82-4a2,2,0,0,1,0,4Zm-11.82,4a2,2,0,0,1,0-4Zm-11.82-4a2,2,0,0,1,0,4Zm-11.82,4a2,2,0,1,1,0-4Zm-11.82-4a2,2,0,1,1,0,4Zm-11.82,4a2,2,0,0,1,0-4Zm-11.81-4a2,2,0,0,1,0,4Zm-11.82,4a2,2,0,1,1,0-4Zm-11.82-4a2,2,0,1,1,0,4Zm-11.82,4a2,2,0,0,1,0-4Zm-11.81-4a2,2,0,0,1,0,4Zm-11.82,4a2,2,0,1,1,0-4Zm-11.82-4a2,2,0,1,1,0,4Zm-11.82,4a2,2,0,0,1,0-4Zm-11.82-4a2,2,0,0,1,0,4Zm-11.82,4a2,2,0,0,1,0-4Zm-11.82-4a2,2,0,0,1,0,4Zm-11.81,4a2,2,0,0,1,0-4Zm-11.82-4a2,2,0,0,1,0,4Zm-11.82,4a2,2,0,0,1,0-4Zm-11.82-4a2,2,0,0,1,0,4Zm-11.81,4a2,2,0,0,1,0-4Zm-11.82-4a2,2,0,0,1,0,4Zm-11.82,4a2,2,0,0,1,0-4Zm-11.82-4a2,2,0,0,1,0,4Zm-11.82,4a2,2,0,1,1,0-4Zm-11.82-4a2,2,0,1,1,0,4Zm-11.81,4a2,2,0,0,1,0-4Zm-11.82-4a2,2,0,0,1,0,4Zm-11.82,4a2,2,0,1,1,0-4Zm-11.82-4a2,2,0,1,1,0,4Zm-11.82,4a2,2,0,0,1,0-4Zm-11.82-4a2,2,0,1,1,0,4Zm-11.81,4a2,2,0,1,1,0-4Zm-11.82-4a2,2,0,0,1,0,4Zm-11.82,4a2,2,0,0,1,0-4Zm-11.82-4a2,2,0,1,1,0,4Zm-11.82,4a2,2,0,0,1,0-4Zm-11.81-4a2,2,0,0,1,0,4Zm-11.82,4a2,2,0,0,1,0-4Zm-11.82-4a2,2,0,1,1,0,4Zm514.09,4h-5.91v-4H910Zm-17.73,0H880.46v-4h11.81Zm-23.63,0H856.82v-4h11.82Zm-23.64,0H833.18v-4H845Zm-23.64,0H809.54v-4h11.82Zm-23.63,0H785.91v-4h11.82Zm-23.64,0H762.27v-4h11.82Zm-23.63,0H738.64v-4h11.82Zm-23.64,0H715v-4h11.82Zm-23.64,0H691.36v-4h11.82Zm-23.64,0H667.73v-4h11.81Zm-23.63,0H644.09v-4h11.82Zm-23.64,0H620.46v-4h11.81Zm-23.63,0H596.82v-4h11.82Zm-23.64,0H573.18v-4H585Zm-23.64,0H549.55v-4h11.81Zm-23.63,0H525.91v-4h11.82Zm-23.64,0H502.27v-4h11.82Zm-23.64,0H478.64v-4h11.81Zm-23.63,0H455v-4h11.82Zm-23.64,0H431.36v-4h11.82Zm-23.63,0H407.73v-4h11.82Z"/><path class="cls-7" d="M1492,886.25a2,2,0,0,1,0,4Zm-520,2,20-11.55v23.1Zm514.09,2a2,2,0,0,1,0-4Zm-11.82-4a2,2,0,0,1,0,4Zm-11.82,4a2,2,0,1,1,0-4Zm-11.81-4a2,2,0,1,1,0,4Zm-11.82,4a2,2,0,1,1,0-4Zm-11.82-4a2,2,0,0,1,0,4Zm-11.82,4a2,2,0,0,1,0-4Zm-11.82-4a2,2,0,0,1,0,4Zm-11.81,4a2,2,0,0,1,0-4Zm-11.82-4a2,2,0,0,1,0,4Zm-11.82,4a2,2,0,1,1,0-4Zm-11.82-4a2,2,0,1,1,0,4Zm-11.82,4a2,2,0,0,1,0-4Zm-11.82-4a2,2,0,0,1,0,4Zm-11.81,4a2,2,0,0,1,0-4Zm-11.82-4a2,2,0,0,1,0,4Zm-11.82,4a2,2,0,0,1,0-4Zm-11.82-4a2,2,0,1,1,0,4Zm-11.82,4a2,2,0,1,1,0-4Zm-11.81-4a2,2,0,1,1,0,4Zm-11.82,4a2,2,0,0,1,0-4Zm-11.82-4a2,2,0,0,1,0,4Zm-11.82,4a2,2,0,0,1,0-4Zm-11.82-4a2,2,0,0,1,0,4Zm-11.82,4a2,2,0,1,1,0-4Zm-11.81-4a2,2,0,1,1,0,4Zm-11.82,4a2,2,0,1,1,0-4Zm-11.82-4a2,2,0,0,1,0,4Zm-11.82,4a2,2,0,0,1,0-4Zm-11.82-4a2,2,0,0,1,0,4Zm-11.81,4a2,2,0,0,1,0-4Zm-11.82-4a2,2,0,0,1,0,4Zm-11.82,4a2,2,0,0,1,0-4Zm-11.82-4a2,2,0,0,1,0,4Zm-11.82,4a2,2,0,0,1,0-4Zm-11.82-4a2,2,0,0,1,0,4Zm-11.81,4a2,2,0,0,1,0-4Zm-11.82-4a2,2,0,0,1,0,4Zm-11.82,4a2,2,0,0,1,0-4Zm-11.82-4a2,2,0,0,1,0,4Zm-11.82,4a2,2,0,0,1,0-4Zm-11.81-4a2,2,0,0,1,0,4Zm-11.82,4a2,2,0,0,1,0-4Zm-11.82-4a2,2,0,0,1,0,4Zm514.09,4h-5.91v-4H1492Zm-17.73,0h-11.82v-4h11.82Zm-23.63,0h-11.82v-4h11.82Zm-23.64,0h-11.82v-4H1427Zm-23.64,0h-11.81v-4h11.81Zm-23.63,0h-11.82v-4h11.82Zm-23.64,0h-11.82v-4h11.82Zm-23.64,0h-11.81v-4h11.81Zm-23.63,0H1297v-4h11.82Zm-23.64,0h-11.82v-4h11.82Zm-23.63,0h-11.82v-4h11.82Zm-23.64,0h-11.82v-4h11.82Zm-23.64,0h-11.82v-4h11.82Zm-23.63,0h-11.82v-4h11.82Zm-23.64,0h-11.82v-4H1167Zm-23.64,0h-11.81v-4h11.81Zm-23.63,0h-11.82v-4h11.82Zm-23.64,0h-11.82v-4h11.82Zm-23.64,0h-11.81v-4h11.81Zm-23.63,0H1037v-4h11.82Zm-23.64,0h-11.82v-4h11.82Zm-23.63,0H989.73v-4h11.82Z"/><path class="cls-7" d="M975,560a2,2,0,0,0,0,4Zm0,85,20,11.55v-23.1Zm174-41.5a2,2,0,0,0-4,0Zm-4,0a2,2,0,0,0,4,0ZM981.53,564a2,2,0,0,0,0-4Zm13.05-4a2,2,0,1,0,0,4Zm13,4a2,2,0,0,0,0-4Zm13-4a2,2,0,0,0,0,4Zm13.05,4a2,2,0,0,0,0-4Zm13.06-4a2,2,0,0,0,0,4Zm13,4a2,2,0,0,0,0-4Zm13.05-4a2,2,0,0,0,0,4Zm13,4a2,2,0,0,0,0-4Zm13-4a2,2,0,0,0,0,4Zm11.68,4.33a2,2,0,1,0,.52-4Zm11.49-1a2,2,0,0,0-1.53,3.7Zm7.4,8.86A2,2,0,0,0,1132,569ZM1140,577a2,2,0,0,0-3.17,2.43Zm2,11.36a2,2,0,0,0,3.7-1.53Zm6.63,9.44a2,2,0,1,0-4,.52Zm-4,10.84a2,2,0,1,0,4,.52Zm1,11.49a2,2,0,0,0-3.7-1.53Zm-8.86,7.4A2,2,0,1,0,1140,630ZM1132,638a2,2,0,1,0-2.43-3.17Zm-11.36,2a2,2,0,0,0,1.53,3.7Zm-9.44,6.63a2,2,0,0,0-.52-4ZM1099,643a2,2,0,0,0,0,4Zm-13,4a2,2,0,0,0,0-4Zm-13-4a2,2,0,0,0,0,4Zm-13.05,4a2,2,0,0,0,0-4Zm-13-4a2,2,0,0,0,0,4Zm-13.06,4a2,2,0,0,0,0-4Zm-13.05-4a2,2,0,0,0,0,4Zm-13,4a2,2,0,0,0,0-4Zm-13-4a2,2,0,1,0,0,4Zm-13.05,4a2,2,0,0,0,0-4ZM975,564h6.53v-4H975Zm19.58,0h13v-4h-13Zm26.09,0h13.05v-4h-13.05Zm26.11,0h13v-4h-13Zm26.1,0h13v-4h-13Zm26.1,0h6.52v-4H1099Zm6.52,0a39.93,39.93,0,0,1,5.16.33l.52-4a42.67,42.67,0,0,0-5.68-.37Zm15.12,3a39.43,39.43,0,0,1,8.93,5.16L1132,569a43.45,43.45,0,0,0-9.83-5.69Zm16.22,12.45a39.43,39.43,0,0,1,5.16,8.93l3.7-1.53A43.45,43.45,0,0,0,1140,577Zm7.83,18.89a39.93,39.93,0,0,1,.33,5.16h4a44.42,44.42,0,0,0-.37-5.68Zm.33,5.16a39.93,39.93,0,0,1-.33,5.16l4,.52a44.42,44.42,0,0,0,.37-5.68Zm-3,15.12a39.43,39.43,0,0,1-5.16,8.93L1140,630a43.45,43.45,0,0,0,5.69-9.83Zm-12.45,16.22a39.43,39.43,0,0,1-8.93,5.16l1.53,3.7A43.45,43.45,0,0,0,1132,638Zm-18.89,7.83a39.93,39.93,0,0,1-5.16.33v4a42.67,42.67,0,0,0,5.68-.37Zm-5.16.33H1099v4h6.53Zm-19.57,0h-13v4h13Zm-26.1,0h-13v4h13Zm-26.11,0h-13.05v4h13.05Zm-26.1,0h-13v4h13Z"/><path class="cls-7" d="M1552,728a2,2,0,0,0,0,4Zm0,160,20,11.55v-23.1Zm281-79a2,2,0,0,0-4,0Zm-4,0a2,2,0,0,0,4,0Zm-270.75-77a2,2,0,0,0,0-4Zm12.5-4a2,2,0,0,0,0,4Zm12.5,4a2,2,0,0,0,0-4Zm12.5-4a2,2,0,0,0,0,4Zm12.5,4a2,2,0,0,0,0-4Zm12.5-4a2,2,0,0,0,0,4Zm12.5,4a2,2,0,0,0,0-4Zm12.5-4a2,2,0,0,0,0,4Zm12.5,4a2,2,0,0,0,0-4Zm12.5-4a2,2,0,0,0,0,4Zm12.5,4a2,2,0,0,0,0-4Zm12.5-4a2,2,0,0,0,0,4Zm12.5,4a2,2,0,0,0,0-4Zm12.5-4a2,2,0,0,0,0,4Zm12.5,4a2,2,0,0,0,0-4Zm12.5-4a2,2,0,0,0,0,4Zm12.3,4.23a2,2,0,1,0,.31-4Zm12.87-2a2,2,0,0,0-.94,3.89Zm10.55,7.62a2,2,0,1,0,1.54-3.69Zm12.86,2.09a2,2,0,0,0-2.09,3.41Zm7.68,10.52a2,2,0,1,0,2.6-3Zm11.58,5.94a2,2,0,1,0-3,2.6Zm4.07,12.37a2,2,0,1,0,3.41-2.09Zm9.19,9.23a2,2,0,1,0-3.69,1.54Zm0,13a2,2,0,0,0,3.89-.94Zm5.86,11.62a2,2,0,1,0-4,.31Zm-4,12.41a2,2,0,1,0,4,.31Zm2,12.87a2,2,0,0,0-3.89-.94Zm-7.62,10.55a2,2,0,1,0,3.69,1.54Zm-2.09,12.86a2,2,0,1,0-3.41-2.09ZM1810.55,859a2,2,0,1,0,3,2.6Zm-5.94,11.58a2,2,0,1,0-2.6-3Zm-12.37,4.07a2,2,0,0,0,2.09,3.41Zm-9.23,9.19a2,2,0,1,0-1.54-3.69Zm-13,0a2,2,0,0,0,.94,3.89Zm-11.62,5.86a2,2,0,1,0-.31-4ZM1745.75,886a2,2,0,0,0,0,4Zm-12.5,4a2,2,0,0,0,0-4Zm-12.5-4a2,2,0,0,0,0,4Zm-12.5,4a2,2,0,0,0,0-4Zm-12.5-4a2,2,0,0,0,0,4Zm-12.5,4a2,2,0,0,0,0-4Zm-12.5-4a2,2,0,0,0,0,4Zm-12.5,4a2,2,0,0,0,0-4Zm-12.5-4a2,2,0,0,0,0,4Zm-12.5,4a2,2,0,0,0,0-4Zm-12.5-4a2,2,0,0,0,0,4Zm-12.5,4a2,2,0,0,0,0-4Zm-12.5-4a2,2,0,0,0,0,4Zm-12.5,4a2,2,0,0,0,0-4Zm-12.5-4a2,2,0,0,0,0,4Zm-12.5,4a2,2,0,0,0,0-4ZM1552,732h6.25v-4H1552Zm18.75,0h12.5v-4h-12.5Zm25,0h12.5v-4h-12.5Zm25,0h12.5v-4h-12.5Zm25,0h12.5v-4h-12.5Zm25,0h12.5v-4h-12.5Zm25,0h12.5v-4h-12.5Zm25,0h12.5v-4h-12.5Zm25,0H1752v-4h-6.25Zm6.25,0c2,0,4,.08,6,.23l.31-4q-3.15-.25-6.36-.25Zm18,2.11a76.72,76.72,0,0,1,11.49,3.73l1.54-3.69a80.16,80.16,0,0,0-12.09-3.93Zm22.26,9.23a76.65,76.65,0,0,1,9.77,7.11l2.6-3a81.28,81.28,0,0,0-10.28-7.48ZM1810.55,759a76.65,76.65,0,0,1,7.11,9.77l3.41-2.09a81.28,81.28,0,0,0-7.48-10.28Zm12.61,20.54a76.72,76.72,0,0,1,3.73,11.49l3.89-.94a81.3,81.3,0,0,0-3.93-12.09Zm5.61,23.42c.15,2,.23,4,.23,6h4q0-3.21-.25-6.36Zm.23,6c0,2-.08,4-.23,6l4,.31q.26-3.15.25-6.36Zm-2.11,18a76.72,76.72,0,0,1-3.73,11.49l3.69,1.54a81.3,81.3,0,0,0,3.93-12.09Zm-9.23,22.26a76.65,76.65,0,0,1-7.11,9.77l3,2.6a81.28,81.28,0,0,0,7.48-10.28ZM1802,867.55a76.65,76.65,0,0,1-9.77,7.11l2.09,3.41a81.28,81.28,0,0,0,10.28-7.48Zm-20.54,12.61a76.72,76.72,0,0,1-11.49,3.73l.94,3.89a80.16,80.16,0,0,0,12.09-3.93Zm-23.42,5.61c-2,.15-4,.23-6,.23v4q3.21,0,6.36-.25Zm-6,.23h-6.25v4H1752Zm-18.75,0h-12.5v4h12.5Zm-25,0h-12.5v4h12.5Zm-25,0h-12.5v4h12.5Zm-25,0h-12.5v4h12.5Zm-25,0h-12.5v4h12.5Zm-25,0h-12.5v4h12.5Zm-25,0h-12.5v4h12.5Z"/><path class="cls-8" d="M601.66,607a.4.4,0,0,1-.43-.31l-.74-2.47a.16.16,0,0,0-.17-.12H594a.15.15,0,0,0-.17.12l-.74,2.47a.41.41,0,0,1-.43.31H590.5a.36.36,0,0,1-.29-.12.45.45,0,0,1,0-.31l5.14-16.06a.4.4,0,0,1,.43-.31h2.81a.41.41,0,0,1,.43.31l5.16,16.06a.46.46,0,0,1,0,.14c0,.19-.11.29-.33.29Zm-7-5.26c0,.12,0,.17.12.17h4.89c.1,0,.14,0,.12-.17l-2.47-8.16c0-.06,0-.09-.1-.09s-.06,0-.09.09Zm18.85-11.56a5.44,5.44,0,0,1,2.66.62,4.36,4.36,0,0,1,1.78,1.78,5.6,5.6,0,0,1,0,5.2,4.43,4.43,0,0,1-1.85,1.76,6,6,0,0,1-2.74.6H609.5c-.1,0-.15,0-.15.14v6.34a.34.34,0,0,1-.38.38h-2a.34.34,0,0,1-.38-.38V590.56a.33.33,0,0,1,.38-.38Zm-.41,7.7a2.73,2.73,0,0,0,2-.72,2.54,2.54,0,0,0,.74-1.9,2.54,2.54,0,0,0-2.71-2.68H609.5c-.1,0-.15,0-.15.14v5c0,.09,0,.14.15.14Zm8.32,9.12a.33.33,0,0,1-.38-.38v-16a.33.33,0,0,1,.38-.38h2a.34.34,0,0,1,.38.38v16a.34.34,0,0,1-.38.38Zm23.57-12.46a3.72,3.72,0,0,1,2.88,1.13,4.33,4.33,0,0,1,1,3.1v7.85a.34.34,0,0,1-.38.38h-2a.34.34,0,0,1-.39-.38v-7.28a2.48,2.48,0,0,0-.6-1.75,2,2,0,0,0-1.56-.65,2.16,2.16,0,0,0-1.61.65,2.41,2.41,0,0,0-.62,1.73v7.3a.34.34,0,0,1-.38.38h-2a.34.34,0,0,1-.38-.38v-7.28a2.48,2.48,0,0,0-.6-1.75,2.07,2.07,0,0,0-1.58-.65,2.05,2.05,0,0,0-2.19,2v7.71a.34.34,0,0,1-.38.38h-2a.34.34,0,0,1-.38-.38v-11.5a.33.33,0,0,1,.38-.38h2a.33.33,0,0,1,.38.38v.65a.14.14,0,0,0,0,.12.1.1,0,0,0,.12-.07,3.67,3.67,0,0,1,3-1.28,4.1,4.1,0,0,1,2,.48,3.13,3.13,0,0,1,1.37,1.37.13.13,0,0,0,.1.07q.08,0,.09-.09a3.51,3.51,0,0,1,1.49-1.37A4.73,4.73,0,0,1,644.94,594.54Zm12.26,10.3a3.64,3.64,0,0,0,1.54-.36,3,3,0,0,0,1.08-1,.35.35,0,0,1,.31-.19.36.36,0,0,1,.22.07l1.15.91a.49.49,0,0,1,.17.31.42.42,0,0,1-.08.22,4.79,4.79,0,0,1-1.89,1.73,6,6,0,0,1-2.76.62,5.43,5.43,0,0,1-3.19-.89,5,5,0,0,1-1.85-2.52,8.65,8.65,0,0,1-.48-3,9.76,9.76,0,0,1,.26-2.55,4.92,4.92,0,0,1,1.8-2.71,5.32,5.32,0,0,1,3.27-1q4.49,0,5.25,4.92a18.13,18.13,0,0,1,.17,2,.34.34,0,0,1-.38.39h-7.44c-.1,0-.15,0-.15.14a3.18,3.18,0,0,0,.15,1.06,2.37,2.37,0,0,0,1,1.34A3.37,3.37,0,0,0,657.2,604.84Zm-.48-7.9a2.44,2.44,0,0,0-1.51.46,2.22,2.22,0,0,0-.79,1.22,3.41,3.41,0,0,0-.19,1q0,.15.12.15h4.82a.13.13,0,0,0,.15-.15,8.17,8.17,0,0,0-.15-.86,2.28,2.28,0,0,0-.86-1.32A2.45,2.45,0,0,0,656.72,596.94Zm14.26-.33a.33.33,0,0,1-.38.38h-2.33c-.09,0-.14,0-.14.15v5.66a2,2,0,0,0,.38,1.34,1.7,1.7,0,0,0,1.27.41h.63a.34.34,0,0,1,.38.39v1.6a.36.36,0,0,1-.38.41l-1.15,0a5.05,5.05,0,0,1-2.84-.65,2.93,2.93,0,0,1-1-2.47v-6.72c0-.1,0-.15-.14-.15h-1.25a.34.34,0,0,1-.38-.38v-1.49a.33.33,0,0,1,.38-.38h1.25c.1,0,.14,0,.14-.15V591.9a.34.34,0,0,1,.39-.38h1.89a.34.34,0,0,1,.39.38v2.69c0,.1,0,.15.14.15h2.33a.33.33,0,0,1,.38.38Zm8.36-2.07a4,4,0,0,1,4.29,4.3v7.78a.33.33,0,0,1-.38.38h-2a.34.34,0,0,1-.38-.38v-7.2a2.47,2.47,0,0,0-.65-1.78,2.14,2.14,0,0,0-1.66-.7,2.25,2.25,0,0,0-1.68.68,2.51,2.51,0,0,0-.62,1.77v7.23a.34.34,0,0,1-.38.38h-2a.34.34,0,0,1-.38-.38v-16a.34.34,0,0,1,.38-.38h2a.34.34,0,0,1,.38.38v5.19a.14.14,0,0,0,0,.12s.06,0,.1,0A3.51,3.51,0,0,1,679.34,594.54Zm12.4,12.65a5.53,5.53,0,0,1-3.26-1,5,5,0,0,1-1.9-2.66,8.45,8.45,0,0,1-.41-2.74,8.82,8.82,0,0,1,.39-2.73,5,5,0,0,1,1.92-2.62,5.71,5.71,0,0,1,3.29-.94,5.32,5.32,0,0,1,3.14.94,5,5,0,0,1,1.9,2.59,8,8,0,0,1,.43,2.74,8.6,8.6,0,0,1-.41,2.73,5.18,5.18,0,0,1-1.9,2.69A5.33,5.33,0,0,1,691.74,607.19Zm0-2.4a2.38,2.38,0,0,0,1.52-.5,2.72,2.72,0,0,0,.91-1.42,6.49,6.49,0,0,0,.26-2,7.41,7.41,0,0,0-.24-2,2.54,2.54,0,0,0-2.49-1.9,2.44,2.44,0,0,0-1.56.51,2.52,2.52,0,0,0-.92,1.39,8.58,8.58,0,0,0,0,4,2.68,2.68,0,0,0,.92,1.42A2.61,2.61,0,0,0,691.74,604.79Zm15.57-14.21a.34.34,0,0,1,.39-.38h2a.33.33,0,0,1,.38.38v16a.33.33,0,0,1-.38.38h-2a.34.34,0,0,1-.39-.38V606a.11.11,0,0,0-.07-.12s-.07,0-.1.07a3.34,3.34,0,0,1-2.73,1.25,4.66,4.66,0,0,1-2.88-.89,5,5,0,0,1-1.73-2.47,9.66,9.66,0,0,1-.43-3,9.13,9.13,0,0,1,.41-2.93,5,5,0,0,1,1.7-2.47,4.73,4.73,0,0,1,2.93-.89,3.5,3.5,0,0,1,2.73,1.18.13.13,0,0,0,.1.07s.07,0,.07-.12Zm-.6,13.06a7.21,7.21,0,0,0-.05-5.64,2,2,0,0,0-1.8-1.06,2.18,2.18,0,0,0-1.92,1,5.34,5.34,0,0,0-.69,2.93,5.61,5.61,0,0,0,.57,2.74,2.14,2.14,0,0,0,2,1.15A2.09,2.09,0,0,0,706.71,603.64Z"/><path class="cls-8" d="M1183.66,775a.4.4,0,0,1-.43-.31l-.74-2.47a.16.16,0,0,0-.17-.12H1176a.15.15,0,0,0-.17.12l-.74,2.47a.41.41,0,0,1-.43.31h-2.19a.36.36,0,0,1-.29-.12.45.45,0,0,1,0-.31l5.14-16.06a.4.4,0,0,1,.43-.31h2.81a.41.41,0,0,1,.43.31l5.16,16.06a.46.46,0,0,1,0,.14c0,.19-.11.29-.33.29Zm-7.05-5.26c0,.12,0,.17.12.17h4.89c.1,0,.14,0,.12-.17l-2.47-8.16c0-.06,0-.09-.1-.09s-.06,0-.09.09Zm18.85-11.56a5.47,5.47,0,0,1,2.66.62,4.36,4.36,0,0,1,1.78,1.78,5.6,5.6,0,0,1,0,5.2,4.49,4.49,0,0,1-1.85,1.76,6,6,0,0,1-2.74.6h-3.81c-.1,0-.15,0-.15.14v6.34a.34.34,0,0,1-.38.38h-2a.34.34,0,0,1-.38-.38V758.56a.33.33,0,0,1,.38-.38Zm-.41,7.7a2.73,2.73,0,0,0,2-.72,2.54,2.54,0,0,0,.74-1.9,2.54,2.54,0,0,0-2.71-2.68h-3.55c-.1,0-.15,0-.15.14v5c0,.09.05.14.15.14Zm8.32,9.12a.33.33,0,0,1-.38-.38v-16a.33.33,0,0,1,.38-.38h2a.34.34,0,0,1,.38.38v16a.34.34,0,0,1-.38.38Zm23.57-12.46a3.72,3.72,0,0,1,2.88,1.13,4.33,4.33,0,0,1,1,3.1v7.85a.34.34,0,0,1-.38.38h-2a.34.34,0,0,1-.39-.38v-7.28a2.48,2.48,0,0,0-.6-1.75,2,2,0,0,0-1.56-.65,2.16,2.16,0,0,0-1.61.65,2.41,2.41,0,0,0-.62,1.73v7.3a.34.34,0,0,1-.38.38h-2a.34.34,0,0,1-.38-.38v-7.28a2.48,2.48,0,0,0-.6-1.75,2.07,2.07,0,0,0-1.58-.65,2.05,2.05,0,0,0-2.19,2v7.71a.34.34,0,0,1-.38.38h-2a.34.34,0,0,1-.38-.38v-11.5a.33.33,0,0,1,.38-.38h2a.33.33,0,0,1,.38.38v.65a.14.14,0,0,0,.05.12.1.1,0,0,0,.12-.07,3.67,3.67,0,0,1,3-1.28,4.1,4.1,0,0,1,2,.48,3.13,3.13,0,0,1,1.37,1.37.13.13,0,0,0,.1.07s.08,0,.09-.09a3.51,3.51,0,0,1,1.49-1.37A4.73,4.73,0,0,1,1226.94,762.54Zm12.26,10.3a3.64,3.64,0,0,0,1.54-.36,3,3,0,0,0,1.08-1,.35.35,0,0,1,.31-.19.36.36,0,0,1,.22.07l1.15.91a.49.49,0,0,1,.17.31.42.42,0,0,1-.08.22,4.79,4.79,0,0,1-1.89,1.73,6,6,0,0,1-2.76.62,5.43,5.43,0,0,1-3.19-.89,5,5,0,0,1-1.85-2.52,8.65,8.65,0,0,1-.48-3,9.76,9.76,0,0,1,.26-2.55,4.92,4.92,0,0,1,1.8-2.71,5.32,5.32,0,0,1,3.27-1q4.49,0,5.25,4.92a18.13,18.13,0,0,1,.17,2,.34.34,0,0,1-.38.39h-7.44c-.1,0-.15,0-.15.14a3.18,3.18,0,0,0,.15,1.06,2.37,2.37,0,0,0,1,1.34A3.37,3.37,0,0,0,1239.2,772.84Zm-.48-7.9a2.44,2.44,0,0,0-1.51.46,2.22,2.22,0,0,0-.79,1.22,3.41,3.41,0,0,0-.19,1q0,.15.12.15h4.82c.1,0,.14,0,.14-.15a6.8,6.8,0,0,0-.14-.86,2.28,2.28,0,0,0-.86-1.32A2.45,2.45,0,0,0,1238.72,764.94Zm14.26-.33a.33.33,0,0,1-.38.38h-2.33c-.09,0-.14,0-.14.15v5.66a2,2,0,0,0,.38,1.34,1.7,1.7,0,0,0,1.27.41h.63a.34.34,0,0,1,.38.39v1.6a.36.36,0,0,1-.38.41l-1.15,0a5.05,5.05,0,0,1-2.84-.65,2.93,2.93,0,0,1-1-2.47v-6.72c0-.1,0-.15-.14-.15h-1.25a.34.34,0,0,1-.38-.38v-1.49a.33.33,0,0,1,.38-.38h1.25c.1,0,.14,0,.14-.15V759.9a.34.34,0,0,1,.39-.38h1.89a.34.34,0,0,1,.39.38v2.69c0,.1,0,.15.14.15h2.33a.33.33,0,0,1,.38.38Zm8.36-2.07a4,4,0,0,1,4.29,4.3v7.78a.34.34,0,0,1-.38.38h-2a.34.34,0,0,1-.38-.38v-7.2a2.47,2.47,0,0,0-.65-1.78,2.14,2.14,0,0,0-1.66-.7,2.25,2.25,0,0,0-1.68.68,2.51,2.51,0,0,0-.62,1.77v7.23a.34.34,0,0,1-.38.38h-2a.33.33,0,0,1-.38-.38v-16a.33.33,0,0,1,.38-.38h2a.34.34,0,0,1,.38.38v5.19a.14.14,0,0,0,0,.12s.06,0,.09,0A3.55,3.55,0,0,1,1261.34,762.54Zm12.4,12.65a5.53,5.53,0,0,1-3.26-1,5,5,0,0,1-1.9-2.66,8.46,8.46,0,0,1-.4-2.74,8.83,8.83,0,0,1,.38-2.73,5,5,0,0,1,1.92-2.62,5.71,5.71,0,0,1,3.29-.94,5.32,5.32,0,0,1,3.14.94,5,5,0,0,1,1.9,2.59,7.77,7.77,0,0,1,.43,2.74,8.6,8.6,0,0,1-.41,2.73,5.22,5.22,0,0,1-1.89,2.69A5.36,5.36,0,0,1,1273.74,775.19Zm0-2.4a2.38,2.38,0,0,0,1.52-.5,2.72,2.72,0,0,0,.91-1.42,6.49,6.49,0,0,0,.26-2,7.41,7.41,0,0,0-.24-2,2.54,2.54,0,0,0-2.49-1.9,2.44,2.44,0,0,0-1.56.51,2.52,2.52,0,0,0-.92,1.39,8.58,8.58,0,0,0,0,4,2.68,2.68,0,0,0,.92,1.42A2.61,2.61,0,0,0,1273.74,772.79Zm15.57-14.21a.34.34,0,0,1,.38-.38h2a.33.33,0,0,1,.38.38v16a.33.33,0,0,1-.38.38h-2a.34.34,0,0,1-.38-.38V774a.11.11,0,0,0-.07-.12s-.07,0-.1.07a3.35,3.35,0,0,1-2.73,1.25,4.66,4.66,0,0,1-2.88-.89,5,5,0,0,1-1.73-2.47,9.66,9.66,0,0,1-.43-3,9.43,9.43,0,0,1,.4-2.93,5,5,0,0,1,1.71-2.47,4.73,4.73,0,0,1,2.93-.89,3.5,3.5,0,0,1,2.73,1.18.13.13,0,0,0,.1.07s.07,0,.07-.12Zm-.6,13.06a7.21,7.21,0,0,0,0-5.64,2,2,0,0,0-1.8-1.06,2.18,2.18,0,0,0-1.92,1,5.34,5.34,0,0,0-.69,2.93,5.61,5.61,0,0,0,.57,2.74,2.14,2.14,0,0,0,2,1.15A2.09,2.09,0,0,0,1288.71,771.64Z"/><path class="cls-8" d="M1622.63,667a.4.4,0,0,1-.43-.31l-.74-2.47a.16.16,0,0,0-.17-.12H1615a.15.15,0,0,0-.17.12l-.74,2.47a.41.41,0,0,1-.43.31h-2.19a.36.36,0,0,1-.29-.12.45.45,0,0,1,0-.31l5.14-16.06a.4.4,0,0,1,.43-.31h2.81a.41.41,0,0,1,.43.31l5.16,16.06a.46.46,0,0,1,0,.14c0,.19-.11.29-.33.29Zm-7.05-5.26c0,.12,0,.17.12.17h4.89c.1,0,.14,0,.12-.17l-2.47-8.16c0-.06,0-.09-.1-.09s-.06,0-.09.09Zm19.09-6.62a.33.33,0,0,1,.38-.38h2c.26,0,.39.12.39.38v11.5a.34.34,0,0,1-.39.38h-2a.33.33,0,0,1-.38-.38V666a.12.12,0,0,0-.08-.12s-.06,0-.09.07a3.49,3.49,0,0,1-2.93,1.23,4.55,4.55,0,0,1-3.07-1.06,3.73,3.73,0,0,1-1.23-3v-8c0-.26.13-.38.39-.38h2c.26,0,.39.12.39.38v7.2a2.7,2.7,0,0,0,.57,1.8,2.11,2.11,0,0,0,1.66.67,2.28,2.28,0,0,0,1.73-.67,2.5,2.5,0,0,0,.65-1.8Zm12.24,1.49a.34.34,0,0,1-.39.38h-2.33c-.09,0-.14,0-.14.15v5.66a2,2,0,0,0,.38,1.34,1.73,1.73,0,0,0,1.28.41h.62c.26,0,.38.13.38.39v1.6a.36.36,0,0,1-.38.41l-1.15,0a5,5,0,0,1-2.83-.65,2.87,2.87,0,0,1-1-2.47v-6.72a.13.13,0,0,0-.15-.15H1640a.34.34,0,0,1-.38-.38v-1.49a.33.33,0,0,1,.38-.38h1.25a.13.13,0,0,0,.15-.15V651.9a.33.33,0,0,1,.38-.38h1.9a.34.34,0,0,1,.38.38v2.69c0,.1,0,.15.14.15h2.33c.26,0,.39.12.39.38Zm8.35-2.07a4,4,0,0,1,4.29,4.3v7.78a.33.33,0,0,1-.38.38h-2a.34.34,0,0,1-.38-.38v-7.2a2.47,2.47,0,0,0-.65-1.78,2.12,2.12,0,0,0-1.65-.7,2.22,2.22,0,0,0-1.68.68,2.47,2.47,0,0,0-.63,1.77v7.23a.34.34,0,0,1-.38.38h-2a.34.34,0,0,1-.38-.38v-16a.34.34,0,0,1,.38-.38h2a.34.34,0,0,1,.38.38v5.19a.14.14,0,0,0,0,.12s.06,0,.1,0A3.51,3.51,0,0,1,1655.26,654.54Zm12.67,10.3a3.68,3.68,0,0,0,1.54-.36,3.12,3.12,0,0,0,1.08-1,.35.35,0,0,1,.31-.19.31.31,0,0,1,.21.07l1.16.91a.47.47,0,0,1,.16.31.4.4,0,0,1-.07.22,4.79,4.79,0,0,1-1.89,1.73,6,6,0,0,1-2.76.62,5.48,5.48,0,0,1-3.2-.89,5.08,5.08,0,0,1-1.84-2.52,8.65,8.65,0,0,1-.48-3,9.34,9.34,0,0,1,.26-2.55,4.82,4.82,0,0,1,1.8-2.71,5.29,5.29,0,0,1,3.26-1q4.5,0,5.26,4.92a18.13,18.13,0,0,1,.17,2,.34.34,0,0,1-.39.39h-7.44a.12.12,0,0,0-.14.14,3.49,3.49,0,0,0,.14,1.06,2.43,2.43,0,0,0,1,1.34A3.35,3.35,0,0,0,1667.93,664.84Zm-.48-7.9a2.44,2.44,0,0,0-1.51.46,2.16,2.16,0,0,0-.79,1.22,3.42,3.42,0,0,0-.2,1q0,.15.12.15h4.83c.09,0,.14,0,.14-.15a6.8,6.8,0,0,0-.14-.86,2.3,2.3,0,0,0-.87-1.32A2.4,2.4,0,0,0,1667.45,656.94Zm13.87-2.4a4.22,4.22,0,0,1,3.12,1.16,4.15,4.15,0,0,1,1.18,3.14v7.78a.34.34,0,0,1-.39.38h-2a.34.34,0,0,1-.39-.38v-7.2a2.46,2.46,0,0,0-.64-1.78,2.14,2.14,0,0,0-1.66-.7,2.22,2.22,0,0,0-1.68.68,2.47,2.47,0,0,0-.62,1.77v7.23a.34.34,0,0,1-.39.38h-2a.34.34,0,0,1-.39-.38v-11.5c0-.26.13-.38.39-.38h2c.26,0,.39.12.39.38v.65c0,.06,0,.1,0,.12s.07,0,.1,0A3.53,3.53,0,0,1,1681.32,654.54Zm13.68,2.07a.34.34,0,0,1-.38.38h-2.33a.13.13,0,0,0-.15.15v5.66a1.9,1.9,0,0,0,.39,1.34,1.69,1.69,0,0,0,1.27.41h.62a.34.34,0,0,1,.39.39v1.6a.36.36,0,0,1-.39.41l-1.15,0a5,5,0,0,1-2.83-.65,2.93,2.93,0,0,1-1-2.47v-6.72c0-.1,0-.15-.14-.15h-1.25a.34.34,0,0,1-.39-.38v-1.49c0-.26.13-.38.39-.38h1.25c.09,0,.14,0,.14-.15V651.9a.34.34,0,0,1,.38-.38h1.9a.33.33,0,0,1,.38.38v2.69a.13.13,0,0,0,.15.15h2.33a.33.33,0,0,1,.38.38Zm4.06-3.41a1.82,1.82,0,0,1-1.3-.48,1.71,1.71,0,0,1-.5-1.27,1.64,1.64,0,0,1,.5-1.25,1.82,1.82,0,0,1,1.3-.48,1.73,1.73,0,0,1,1.27.48,1.67,1.67,0,0,1,.5,1.25,1.75,1.75,0,0,1-.5,1.27A1.73,1.73,0,0,1,1699.06,653.2Zm-1,13.8a.34.34,0,0,1-.39-.38v-11.5c0-.26.13-.38.39-.38h2c.26,0,.39.12.39.38v11.5a.34.34,0,0,1-.39.38Zm10.65.19a5.48,5.48,0,0,1-3.19-.93,5,5,0,0,1-1.87-2.57,10.64,10.64,0,0,1,0-5.71,4.58,4.58,0,0,1,1.85-2.5,5.57,5.57,0,0,1,3.21-.94,5.76,5.76,0,0,1,3.27.94,4.46,4.46,0,0,1,1.84,2.35,4.68,4.68,0,0,1,.15.67v.1c0,.18-.11.29-.31.34l-2,.31h-.09a.33.33,0,0,1-.34-.29l-.07-.31a2,2,0,0,0-.84-1.2,2.58,2.58,0,0,0-1.61-.51,2.54,2.54,0,0,0-1.56.48,2.3,2.3,0,0,0-.84,1.28,7.42,7.42,0,0,0-.24,2.13,8.37,8.37,0,0,0,.22,2.14,2.59,2.59,0,0,0,.86,1.34,2.5,2.5,0,0,0,1.56.48,2.66,2.66,0,0,0,1.56-.45,2.15,2.15,0,0,0,.87-1.25l0-.12a.5.5,0,0,1,.14-.24.42.42,0,0,1,.32-.1l2,.31c.21,0,.31.16.31.34a3,3,0,0,1-.1.58,4.3,4.3,0,0,1-1.84,2.44A5.89,5.89,0,0,1,1708.7,667.19ZM1721,654.54a6.31,6.31,0,0,1,2.66.53,4,4,0,0,1,1.8,1.47,3.55,3.55,0,0,1,.63,2.08v8a.34.34,0,0,1-.39.38h-2a.34.34,0,0,1-.39-.38V666c0-.07,0-.1,0-.1a.11.11,0,0,0-.12,0,4.76,4.76,0,0,1-3.46,1.25,4.58,4.58,0,0,1-2.93-.91,3.29,3.29,0,0,1-1.13-2.71,3.53,3.53,0,0,1,1.3-2.91,5.8,5.8,0,0,1,3.7-1h2.54c.1,0,.14-.05.14-.15v-.55a1.83,1.83,0,0,0-.57-1.44,2.33,2.33,0,0,0-1.66-.53,2.77,2.77,0,0,0-1.39.32,1.43,1.43,0,0,0-.74.81.38.38,0,0,1-.44.31l-2.16-.26a.61.61,0,0,1-.28-.1.22.22,0,0,1-.08-.21,3.38,3.38,0,0,1,1.59-2.35A6.11,6.11,0,0,1,1721,654.54Zm-.55,10.44a3.25,3.25,0,0,0,2-.62,1.9,1.9,0,0,0,.84-1.58v-1.11a.12.12,0,0,0-.14-.14h-2a3.7,3.7,0,0,0-2,.48,1.54,1.54,0,0,0-.74,1.37,1.43,1.43,0,0,0,.57,1.2A2.52,2.52,0,0,0,1720.47,665Zm14.73-8.37a.34.34,0,0,1-.39.38h-2.33c-.09,0-.14,0-.14.15v5.66a2,2,0,0,0,.38,1.34,1.73,1.73,0,0,0,1.28.41h.62c.26,0,.38.13.38.39v1.6a.36.36,0,0,1-.38.41l-1.15,0a5,5,0,0,1-2.83-.65,2.87,2.87,0,0,1-1-2.47v-6.72a.13.13,0,0,0-.15-.15h-1.25a.34.34,0,0,1-.38-.38v-1.49a.33.33,0,0,1,.38-.38h1.25a.13.13,0,0,0,.15-.15V651.9a.33.33,0,0,1,.38-.38h1.9a.34.34,0,0,1,.38.38v2.69c0,.1.05.15.14.15h2.33c.26,0,.39.12.39.38Zm7.73,8.23a3.68,3.68,0,0,0,1.54-.36,3.12,3.12,0,0,0,1.08-1,.35.35,0,0,1,.31-.19.31.31,0,0,1,.21.07l1.16.91a.47.47,0,0,1,.16.31.4.4,0,0,1-.07.22,4.79,4.79,0,0,1-1.89,1.73,6,6,0,0,1-2.76.62,5.48,5.48,0,0,1-3.2-.89,5.08,5.08,0,0,1-1.84-2.52,8.65,8.65,0,0,1-.48-3,9.34,9.34,0,0,1,.26-2.55,4.82,4.82,0,0,1,1.8-2.71,5.29,5.29,0,0,1,3.26-1q4.5,0,5.26,4.92a18.13,18.13,0,0,1,.17,2,.34.34,0,0,1-.39.39h-7.44a.12.12,0,0,0-.14.14,3.49,3.49,0,0,0,.14,1.06,2.43,2.43,0,0,0,1,1.34A3.35,3.35,0,0,0,1742.93,664.84Zm-.48-7.9a2.44,2.44,0,0,0-1.51.46,2.16,2.16,0,0,0-.79,1.22,3.42,3.42,0,0,0-.2,1q0,.15.12.15h4.83c.09,0,.14,0,.14-.15a6.8,6.8,0,0,0-.14-.86,2.3,2.3,0,0,0-.87-1.32A2.4,2.4,0,0,0,1742.45,656.94Zm20-1.82c0-.26.13-.38.39-.38h2a.33.33,0,0,1,.38.38v11.5a.33.33,0,0,1-.38.38h-2a.34.34,0,0,1-.39-.38V666a.11.11,0,0,0-.07-.12s-.06,0-.09.07a3.49,3.49,0,0,1-2.93,1.23,4.55,4.55,0,0,1-3.07-1.06,3.73,3.73,0,0,1-1.23-3v-8c0-.26.13-.38.39-.38h2c.26,0,.39.12.39.38v7.2a2.7,2.7,0,0,0,.57,1.8,2.1,2.1,0,0,0,1.66.67,2.3,2.3,0,0,0,1.73-.67,2.49,2.49,0,0,0,.64-1.8Zm10.32,12a7.53,7.53,0,0,1-2.66-.43,4.19,4.19,0,0,1-1.75-1.22,2.75,2.75,0,0,1-.63-1.75v-.12a.34.34,0,0,1,.39-.39h1.92c.25,0,.38.06.38.17v.17a1.29,1.29,0,0,0,.65,1,3,3,0,0,0,1.68.44,2.82,2.82,0,0,0,1.56-.39,1.19,1.19,0,0,0,.6-1,.86.86,0,0,0-.5-.81,7.22,7.22,0,0,0-1.59-.6L1772,662a13.47,13.47,0,0,1-2.06-.77,4.18,4.18,0,0,1-1.42-1.1,2.86,2.86,0,0,1-.58-1.83,3.18,3.18,0,0,1,1.3-2.66,5.6,5.6,0,0,1,3.48-1,6.4,6.4,0,0,1,2.57.48,3.9,3.9,0,0,1,1.7,1.3,3,3,0,0,1,.63,1.87.29.29,0,0,1-.12.22.54.54,0,0,1-.27.07h-1.85c-.25,0-.38,0-.38-.15v-.14a1.2,1.2,0,0,0-.62-1,2.8,2.8,0,0,0-1.66-.43,3,3,0,0,0-1.54.36,1,1,0,0,0-.57,1,1,1,0,0,0,.55.88,9.69,9.69,0,0,0,1.85.65l.55.15a18.68,18.68,0,0,1,2.16.76,4,4,0,0,1,1.46,1.11,2.78,2.78,0,0,1,.6,1.85,3.13,3.13,0,0,1-1.34,2.68A6,6,0,0,1,1772.81,667.14Zm12.78-2.3a3.59,3.59,0,0,0,1.53-.36,3,3,0,0,0,1.08-1,.36.36,0,0,1,.31-.19.34.34,0,0,1,.22.07l1.15.91a.49.49,0,0,1,.17.31.4.4,0,0,1-.07.22,4.88,4.88,0,0,1-1.9,1.73,6,6,0,0,1-2.76.62,5.45,5.45,0,0,1-3.19-.89,5.09,5.09,0,0,1-1.85-2.52,8.65,8.65,0,0,1-.48-3,9.27,9.27,0,0,1,.27-2.55,4.82,4.82,0,0,1,1.8-2.71,5.27,5.27,0,0,1,3.26-1q4.48,0,5.26,4.92a18.44,18.44,0,0,1,.16,2c0,.26-.12.39-.38.39h-7.44c-.1,0-.14,0-.14.14a3.2,3.2,0,0,0,.14,1.06,2.39,2.39,0,0,0,1,1.34A3.33,3.33,0,0,0,1785.59,664.84Zm-.48-7.9a2.47,2.47,0,0,0-1.52.46,2.27,2.27,0,0,0-.79,1.22,3.76,3.76,0,0,0-.19,1q0,.15.12.15h4.82a.13.13,0,0,0,.15-.15,6,6,0,0,0-.15-.86,2.28,2.28,0,0,0-.86-1.32A2.42,2.42,0,0,0,1785.11,656.94Zm13.7-2.35a3,3,0,0,1,1.27.27.39.39,0,0,1,.22.48l-.39,2a.25.25,0,0,1-.14.24.53.53,0,0,1-.31,0,2.32,2.32,0,0,0-.77-.1,2.86,2.86,0,0,0-.46,0,2.44,2.44,0,0,0-1.68.72,2.28,2.28,0,0,0-.67,1.7v6.7a.34.34,0,0,1-.38.38h-2a.34.34,0,0,1-.38-.38v-11.5a.33.33,0,0,1,.38-.38h2a.33.33,0,0,1,.38.38v.94a.14.14,0,0,0,0,.12s.06,0,.1-.08A3.18,3.18,0,0,1,1798.81,654.59Zm-148.52,29.95a6.38,6.38,0,0,1,2.66.53,4.13,4.13,0,0,1,1.8,1.47,3.54,3.54,0,0,1,.62,2.08v8a.33.33,0,0,1-.38.38h-2a.34.34,0,0,1-.38-.38V696c0-.07,0-.1,0-.1s-.07,0-.12,0a4.72,4.72,0,0,1-3.45,1.25,4.56,4.56,0,0,1-2.93-.91,3.29,3.29,0,0,1-1.13-2.71,3.5,3.5,0,0,1,1.3-2.91,5.79,5.79,0,0,1,3.69-1h2.55c.09,0,.14-.05.14-.15v-.55a1.81,1.81,0,0,0-.58-1.44,2.3,2.3,0,0,0-1.65-.53,2.75,2.75,0,0,0-1.39.32,1.48,1.48,0,0,0-.75.81.37.37,0,0,1-.43.31l-2.16-.26a.66.66,0,0,1-.29-.1.21.21,0,0,1-.07-.21,3.34,3.34,0,0,1,1.58-2.35A6.15,6.15,0,0,1,1650.29,684.54Zm-.56,10.44a3.26,3.26,0,0,0,2-.62,1.9,1.9,0,0,0,.84-1.58v-1.11a.13.13,0,0,0-.14-.14h-2a3.67,3.67,0,0,0-2,.48,1.53,1.53,0,0,0-.75,1.37,1.43,1.43,0,0,0,.58,1.2A2.47,2.47,0,0,0,1649.73,695ZM1664,684.54a4,4,0,0,1,4.3,4.3v7.78a.34.34,0,0,1-.38.38h-2a.33.33,0,0,1-.38-.38v-7.2a2.47,2.47,0,0,0-.65-1.78,2.14,2.14,0,0,0-1.66-.7,2.22,2.22,0,0,0-1.68.68,2.51,2.51,0,0,0-.62,1.77v7.23a.34.34,0,0,1-.39.38h-2a.34.34,0,0,1-.39-.38v-11.5c0-.26.13-.38.39-.38h2c.26,0,.39.12.39.38v.65c0,.06,0,.1,0,.12s.06,0,.09,0A3.53,3.53,0,0,1,1664,684.54Zm14.62-4a.34.34,0,0,1,.38-.38h2a.34.34,0,0,1,.38.38v16a.34.34,0,0,1-.38.38h-2a.34.34,0,0,1-.38-.38V696a.13.13,0,0,0-.07-.12s-.07,0-.1.07a3.36,3.36,0,0,1-2.74,1.25,4.66,4.66,0,0,1-2.88-.89,5,5,0,0,1-1.72-2.47,9.65,9.65,0,0,1-.44-3,9.42,9.42,0,0,1,.41-2.93,4.94,4.94,0,0,1,1.71-2.47,4.72,4.72,0,0,1,2.92-.89,3.53,3.53,0,0,1,2.74,1.18s.06.07.1.07.07,0,.07-.12Zm-.6,13.06a7.21,7.21,0,0,0,0-5.64,2,2,0,0,0-1.8-1.06,2.18,2.18,0,0,0-1.92,1,5.33,5.33,0,0,0-.7,2.93,5.61,5.61,0,0,0,.58,2.74,2.14,2.14,0,0,0,2,1.15A2.09,2.09,0,0,0,1678,693.64Zm21.6-5.74a9.57,9.57,0,0,1,.43,3,9.33,9.33,0,0,1-.41,2.93,4.94,4.94,0,0,1-1.7,2.47,4.69,4.69,0,0,1-2.93.89,3.53,3.53,0,0,1-2.74-1.17.09.09,0,0,0-.12,0s0,0,0,.09v5.09a.34.34,0,0,1-.39.39h-2a.34.34,0,0,1-.39-.39v-16c0-.26.13-.38.39-.38h2c.26,0,.39.12.39.38v.62c0,.07,0,.11,0,.12s.09,0,.12-.07a3.39,3.39,0,0,1,2.74-1.25,4.61,4.61,0,0,1,2.88.92A4.87,4.87,0,0,1,1699.64,687.9Zm-3.15,5.88a5.21,5.21,0,0,0,.7-2.92,5.44,5.44,0,0,0-.58-2.74,2.1,2.1,0,0,0-2-1.15,2.06,2.06,0,0,0-1.87,1.13,7.15,7.15,0,0,0,0,5.64,2,2,0,0,0,1.8,1A2.14,2.14,0,0,0,1696.49,693.78Zm10.72-9.24a6.39,6.39,0,0,1,2.67.53,4.13,4.13,0,0,1,1.8,1.47,3.62,3.62,0,0,1,.62,2.08v8a.34.34,0,0,1-.38.38h-2a.34.34,0,0,1-.38-.38V696c0-.07,0-.1,0-.1s-.07,0-.12,0a4.74,4.74,0,0,1-3.46,1.25,4.53,4.53,0,0,1-2.92-.91,3.26,3.26,0,0,1-1.13-2.71,3.52,3.52,0,0,1,1.29-2.91,5.82,5.82,0,0,1,3.7-1h2.54a.13.13,0,0,0,.15-.15v-.55a1.81,1.81,0,0,0-.58-1.44,2.32,2.32,0,0,0-1.65-.53,2.81,2.81,0,0,0-1.4.32,1.5,1.5,0,0,0-.74.81.37.37,0,0,1-.43.31l-2.16-.26a.61.61,0,0,1-.29-.1.21.21,0,0,1-.07-.21,3.34,3.34,0,0,1,1.58-2.35A6.11,6.11,0,0,1,1707.21,684.54Zm-.55,10.44a3.26,3.26,0,0,0,2-.62,1.9,1.9,0,0,0,.84-1.58v-1.11c0-.09,0-.14-.15-.14h-2a3.64,3.64,0,0,0-2,.48,1.53,1.53,0,0,0-.75,1.37,1.41,1.41,0,0,0,.58,1.2A2.47,2.47,0,0,0,1706.66,695Zm14.13-10.39a3,3,0,0,1,1.27.27.38.38,0,0,1,.21.48l-.38,2c0,.13-.06.21-.14.24a.56.56,0,0,1-.32,0,2.25,2.25,0,0,0-.76-.1,2.69,2.69,0,0,0-.46,0,2.44,2.44,0,0,0-1.68.72,2.24,2.24,0,0,0-.67,1.7v6.7a.34.34,0,0,1-.39.38h-2a.34.34,0,0,1-.39-.38v-11.5c0-.26.13-.38.39-.38h2c.26,0,.39.12.39.38v.94c0,.06,0,.1.05.12s.06,0,.09-.08A3.19,3.19,0,0,1,1720.79,684.59Zm10,2a.34.34,0,0,1-.38.38h-2.33c-.1,0-.14,0-.14.15v5.66a1.9,1.9,0,0,0,.38,1.34,1.7,1.7,0,0,0,1.27.41h.63a.34.34,0,0,1,.38.39v1.6a.36.36,0,0,1-.38.41l-1.16,0a5,5,0,0,1-2.83-.65,2.93,2.93,0,0,1-1-2.47v-6.72c0-.1,0-.15-.14-.15h-1.25a.33.33,0,0,1-.38-.38v-1.49a.33.33,0,0,1,.38-.38h1.25c.09,0,.14,0,.14-.15V681.9a.34.34,0,0,1,.39-.38h1.89a.34.34,0,0,1,.39.38v2.69c0,.1,0,.15.14.15h2.33a.33.33,0,0,1,.38.38Zm8.35-2.07a4,4,0,0,1,4.3,4.3v7.78a.34.34,0,0,1-.38.38h-2a.33.33,0,0,1-.38-.38v-7.2a2.47,2.47,0,0,0-.65-1.78,2.14,2.14,0,0,0-1.66-.7,2.22,2.22,0,0,0-1.68.68,2.51,2.51,0,0,0-.62,1.77v7.23a.34.34,0,0,1-.39.38h-2a.34.34,0,0,1-.39-.38v-11.5c0-.26.13-.38.39-.38h2c.26,0,.39.12.39.38v.65c0,.06,0,.1,0,.12s.06,0,.09,0A3.53,3.53,0,0,1,1739.16,684.54Zm12.68,10.3a3.59,3.59,0,0,0,1.53-.36,3,3,0,0,0,1.08-1,.36.36,0,0,1,.31-.19.34.34,0,0,1,.22.07l1.15.91a.49.49,0,0,1,.17.31.4.4,0,0,1-.07.22,4.88,4.88,0,0,1-1.9,1.73,6,6,0,0,1-2.76.62,5.45,5.45,0,0,1-3.19-.89,5.09,5.09,0,0,1-1.85-2.52,8.65,8.65,0,0,1-.48-3,9.27,9.27,0,0,1,.27-2.55,4.82,4.82,0,0,1,1.8-2.71,5.27,5.27,0,0,1,3.26-1q4.48,0,5.26,4.92a18.44,18.44,0,0,1,.16,2c0,.26-.12.39-.38.39H1749c-.1,0-.14,0-.14.14A3.2,3.2,0,0,0,1749,693a2.39,2.39,0,0,0,1,1.34A3.33,3.33,0,0,0,1751.84,694.84Zm-.48-7.9a2.47,2.47,0,0,0-1.52.46,2.27,2.27,0,0,0-.79,1.22,3.76,3.76,0,0,0-.19,1q0,.15.12.15h4.82a.13.13,0,0,0,.15-.15,6,6,0,0,0-.15-.86,2.28,2.28,0,0,0-.86-1.32A2.42,2.42,0,0,0,1751.36,686.94Zm13.7-2.35a3,3,0,0,1,1.27.27.39.39,0,0,1,.22.48l-.39,2a.25.25,0,0,1-.14.24.53.53,0,0,1-.31,0,2.32,2.32,0,0,0-.77-.1,2.86,2.86,0,0,0-.46,0,2.44,2.44,0,0,0-1.68.72,2.28,2.28,0,0,0-.67,1.7v6.7a.34.34,0,0,1-.38.38h-2a.34.34,0,0,1-.38-.38v-11.5a.33.33,0,0,1,.38-.38h2a.33.33,0,0,1,.38.38v.94a.14.14,0,0,0,0,.12s.06,0,.1-.08A3.18,3.18,0,0,1,1765.06,684.59Z"/><path class="cls-8" d="M1633.42,918.22a.33.33,0,0,1-.38.38H1625c-.1,0-.15,0-.15.14v4.44a.13.13,0,0,0,.15.15h5.37a.34.34,0,0,1,.39.38v1.63a.34.34,0,0,1-.39.39H1625c-.1,0-.15,0-.15.14v4.59c0,.09.05.14.15.14H1633a.33.33,0,0,1,.38.38v1.64a.33.33,0,0,1-.38.38h-10.61a.34.34,0,0,1-.38-.38v-16a.34.34,0,0,1,.38-.38H1633a.33.33,0,0,1,.38.38Zm2,14.78c-.21,0-.31-.07-.31-.22a.56.56,0,0,1,.07-.24L1639,927a.14.14,0,0,0,0-.19l-3.79-5.57a.49.49,0,0,1-.07-.24c0-.14.1-.21.31-.21h2.16a.55.55,0,0,1,.46.24l2.44,3.62a.19.19,0,0,0,.1,0,.11.11,0,0,0,.1,0l2.42-3.62a.5.5,0,0,1,.46-.24h2.32c.21,0,.32.07.32.21a.52.52,0,0,1-.08.24l-3.79,5.57a.14.14,0,0,0,0,.19l3.79,5.59a.6.6,0,0,1,.08.24c0,.15-.11.22-.32.22h-2.16a.49.49,0,0,1-.45-.24l-2.43-3.62s0,0-.09,0a.12.12,0,0,0-.1,0l-2.45,3.62a.52.52,0,0,1-.45.24Zm17.65-2.16a3.68,3.68,0,0,0,1.54-.36,3.12,3.12,0,0,0,1.08-1,.35.35,0,0,1,.31-.19.31.31,0,0,1,.21.07l1.16.91a.47.47,0,0,1,.16.31.4.4,0,0,1-.07.22,4.79,4.79,0,0,1-1.89,1.73,6,6,0,0,1-2.76.62,5.48,5.48,0,0,1-3.2-.89,5.08,5.08,0,0,1-1.84-2.52,8.65,8.65,0,0,1-.48-3,9.34,9.34,0,0,1,.26-2.55,4.82,4.82,0,0,1,1.8-2.71,5.29,5.29,0,0,1,3.26-1q4.5,0,5.26,4.92a18.13,18.13,0,0,1,.17,2,.34.34,0,0,1-.39.39h-7.44a.12.12,0,0,0-.14.14,3.49,3.49,0,0,0,.14,1.06,2.43,2.43,0,0,0,1,1.34A3.35,3.35,0,0,0,1653.11,930.84Zm-.48-7.9a2.44,2.44,0,0,0-1.51.46,2.16,2.16,0,0,0-.79,1.22,3.42,3.42,0,0,0-.2,1q0,.15.12.15h4.83c.09,0,.14,0,.14-.15a6.8,6.8,0,0,0-.14-.86,2.3,2.3,0,0,0-.87-1.32A2.4,2.4,0,0,0,1652.63,922.94Zm13.1,10.25a5.48,5.48,0,0,1-3.19-.93,5,5,0,0,1-1.87-2.57,10.64,10.64,0,0,1,0-5.71,4.58,4.58,0,0,1,1.85-2.5,5.57,5.57,0,0,1,3.21-.94,5.76,5.76,0,0,1,3.27.94,4.46,4.46,0,0,1,1.84,2.35,4.68,4.68,0,0,1,.15.67v.1c0,.18-.11.29-.31.34l-2,.31h-.09a.33.33,0,0,1-.34-.29l-.07-.31a2,2,0,0,0-.84-1.2,2.58,2.58,0,0,0-1.61-.51,2.54,2.54,0,0,0-1.56.48,2.3,2.3,0,0,0-.84,1.28,7.42,7.42,0,0,0-.24,2.13,8.37,8.37,0,0,0,.22,2.14,2.59,2.59,0,0,0,.86,1.34,2.5,2.5,0,0,0,1.56.48,2.66,2.66,0,0,0,1.56-.45,2.15,2.15,0,0,0,.87-1.25l0-.12a.5.5,0,0,1,.14-.24.42.42,0,0,1,.32-.1l2,.31c.21,0,.31.16.31.34a3,3,0,0,1-.1.58,4.3,4.3,0,0,1-1.84,2.44A5.89,5.89,0,0,1,1665.73,933.19Zm14.89-12.07a.33.33,0,0,1,.38-.38h2c.26,0,.39.12.39.38v11.5a.34.34,0,0,1-.39.38h-2a.34.34,0,0,1-.38-.38V932a.13.13,0,0,0-.07-.12s-.07,0-.1.07a3.49,3.49,0,0,1-2.93,1.23,4.57,4.57,0,0,1-3.07-1.06,3.72,3.72,0,0,1-1.22-3v-8a.33.33,0,0,1,.38-.38h2a.33.33,0,0,1,.38.38v7.2a2.65,2.65,0,0,0,.58,1.8,2.09,2.09,0,0,0,1.65.67,2.28,2.28,0,0,0,1.73-.67,2.5,2.5,0,0,0,.65-1.8Zm12.24,1.49a.34.34,0,0,1-.38.38h-2.33a.13.13,0,0,0-.15.15v5.66a1.9,1.9,0,0,0,.39,1.34,1.69,1.69,0,0,0,1.27.41h.62a.34.34,0,0,1,.39.39v1.6a.36.36,0,0,1-.39.41l-1.15,0a5,5,0,0,1-2.83-.65,2.93,2.93,0,0,1-1-2.47v-6.72c0-.1,0-.15-.14-.15H1686a.34.34,0,0,1-.39-.38v-1.49c0-.26.13-.38.39-.38h1.25c.09,0,.14,0,.14-.15V917.9a.34.34,0,0,1,.38-.38h1.9a.33.33,0,0,1,.38.38v2.69a.13.13,0,0,0,.15.15h2.33a.33.33,0,0,1,.38.38Zm7.73,8.23a3.6,3.6,0,0,0,1.54-.36,3,3,0,0,0,1.08-1,.35.35,0,0,1,.31-.19.36.36,0,0,1,.22.07l1.15.91a.49.49,0,0,1,.17.31.51.51,0,0,1-.07.22,4.88,4.88,0,0,1-1.9,1.73,6,6,0,0,1-2.76.62,5.45,5.45,0,0,1-3.19-.89,5,5,0,0,1-1.85-2.52,8.65,8.65,0,0,1-.48-3,9.76,9.76,0,0,1,.26-2.55,4.92,4.92,0,0,1,1.8-2.71,5.32,5.32,0,0,1,3.27-1q4.48,0,5.25,4.92a18.13,18.13,0,0,1,.17,2,.34.34,0,0,1-.38.39h-7.44c-.1,0-.15,0-.15.14a3.18,3.18,0,0,0,.15,1.06,2.34,2.34,0,0,0,1,1.34A3.31,3.31,0,0,0,1700.59,930.84Zm-.48-7.9a2.46,2.46,0,0,0-1.51.46,2.22,2.22,0,0,0-.79,1.22,3.41,3.41,0,0,0-.19,1q0,.15.12.15h4.82a.13.13,0,0,0,.15-.15,8.17,8.17,0,0,0-.15-.86,2.28,2.28,0,0,0-.86-1.32A2.45,2.45,0,0,0,1700.11,922.94Zm25.93-2.4a3.72,3.72,0,0,1,2.88,1.13,4.33,4.33,0,0,1,1,3.1v7.85a.33.33,0,0,1-.38.38h-2a.34.34,0,0,1-.39-.38v-7.28a2.48,2.48,0,0,0-.6-1.75,2,2,0,0,0-1.56-.65,2.12,2.12,0,0,0-1.6.65,2.37,2.37,0,0,0-.63,1.73v7.3a.34.34,0,0,1-.38.38h-2a.34.34,0,0,1-.39-.38v-7.28a2.48,2.48,0,0,0-.6-1.75,2.07,2.07,0,0,0-1.58-.65,2.21,2.21,0,0,0-1.51.53,2.18,2.18,0,0,0-.68,1.44v7.71a.33.33,0,0,1-.38.38h-2a.34.34,0,0,1-.38-.38v-11.5a.33.33,0,0,1,.38-.38h2a.33.33,0,0,1,.38.38v.65a.14.14,0,0,0,0,.12.1.1,0,0,0,.12-.07,3.68,3.68,0,0,1,3-1.28,4.16,4.16,0,0,1,2,.48,3.16,3.16,0,0,1,1.36,1.37c0,.05.07.07.1.07s.08,0,.1-.09A3.43,3.43,0,0,1,1724,921,4.76,4.76,0,0,1,1726,920.54Zm12.26,10.3a3.6,3.6,0,0,0,1.54-.36,3,3,0,0,0,1.08-1,.35.35,0,0,1,.31-.19.36.36,0,0,1,.22.07l1.15.91a.49.49,0,0,1,.17.31.51.51,0,0,1-.07.22,4.88,4.88,0,0,1-1.9,1.73,6,6,0,0,1-2.76.62,5.45,5.45,0,0,1-3.19-.89,5,5,0,0,1-1.85-2.52,8.65,8.65,0,0,1-.48-3,9.76,9.76,0,0,1,.26-2.55,4.92,4.92,0,0,1,1.8-2.71,5.32,5.32,0,0,1,3.27-1q4.49,0,5.25,4.92a18.13,18.13,0,0,1,.17,2,.34.34,0,0,1-.38.39h-7.44c-.1,0-.15,0-.15.14a3.18,3.18,0,0,0,.15,1.06,2.34,2.34,0,0,0,1,1.34A3.31,3.31,0,0,0,1738.3,930.84Zm-.48-7.9a2.46,2.46,0,0,0-1.51.46,2.22,2.22,0,0,0-.79,1.22,3.41,3.41,0,0,0-.19,1q0,.15.12.15h4.82a.13.13,0,0,0,.15-.15,8.17,8.17,0,0,0-.15-.86,2.28,2.28,0,0,0-.86-1.32A2.45,2.45,0,0,0,1737.82,922.94Zm14.27-.33a.34.34,0,0,1-.39.38h-2.33c-.09,0-.14,0-.14.15v5.66a2,2,0,0,0,.38,1.34,1.73,1.73,0,0,0,1.28.41h.62c.26,0,.38.13.38.39v1.6a.36.36,0,0,1-.38.41l-1.15,0a5,5,0,0,1-2.83-.65,2.87,2.87,0,0,1-1-2.47v-6.72a.13.13,0,0,0-.15-.15h-1.25a.34.34,0,0,1-.38-.38v-1.49a.33.33,0,0,1,.38-.38h1.25a.13.13,0,0,0,.15-.15V917.9a.33.33,0,0,1,.38-.38h1.9a.34.34,0,0,1,.38.38v2.69c0,.1,0,.15.14.15h2.33c.26,0,.39.12.39.38Zm8.35-2.07a4,4,0,0,1,4.29,4.3v7.78a.33.33,0,0,1-.38.38h-2a.34.34,0,0,1-.38-.38v-7.2a2.47,2.47,0,0,0-.65-1.78,2.12,2.12,0,0,0-1.65-.7,2.22,2.22,0,0,0-1.68.68,2.47,2.47,0,0,0-.63,1.77v7.23a.34.34,0,0,1-.38.38h-2a.34.34,0,0,1-.38-.38v-16a.34.34,0,0,1,.38-.38h2a.34.34,0,0,1,.38.38v5.19a.14.14,0,0,0,.05.12s.06,0,.1,0A3.51,3.51,0,0,1,1760.44,920.54Zm12.41,12.65a5.54,5.54,0,0,1-3.27-1,4.93,4.93,0,0,1-1.89-2.66,8.18,8.18,0,0,1-.41-2.74,9.14,9.14,0,0,1,.38-2.73,5,5,0,0,1,1.92-2.62,5.71,5.71,0,0,1,3.29-.94,5.3,5.3,0,0,1,3.14.94,5,5,0,0,1,1.9,2.59,7.77,7.77,0,0,1,.43,2.74,8.33,8.33,0,0,1-.41,2.73,5.17,5.17,0,0,1-1.89,2.69A5.35,5.35,0,0,1,1772.85,933.19Zm0-2.4a2.37,2.37,0,0,0,1.51-.5,2.72,2.72,0,0,0,.91-1.42,6.2,6.2,0,0,0,.26-2,7.41,7.41,0,0,0-.24-2,2.6,2.6,0,0,0-4-1.39,2.51,2.51,0,0,0-.91,1.39,8.58,8.58,0,0,0,0,4,2.67,2.67,0,0,0,.91,1.42A2.64,2.64,0,0,0,1772.85,930.79Zm15.56-14.21a.34.34,0,0,1,.39-.38h2a.34.34,0,0,1,.39.38v16a.34.34,0,0,1-.39.38h-2a.34.34,0,0,1-.39-.38V932a.11.11,0,0,0-.07-.12s-.06,0-.1.07a3.34,3.34,0,0,1-2.73,1.25,4.66,4.66,0,0,1-2.88-.89,5,5,0,0,1-1.73-2.47,9.66,9.66,0,0,1-.43-3,9.13,9.13,0,0,1,.41-2.93,5,5,0,0,1,1.7-2.47,4.73,4.73,0,0,1,2.93-.89,3.5,3.5,0,0,1,2.73,1.18s.07.07.1.07.07,0,.07-.12Zm-.6,13.06a7.21,7.21,0,0,0,0-5.64,2,2,0,0,0-1.8-1.06,2.18,2.18,0,0,0-1.92,1,5.34,5.34,0,0,0-.69,2.93,5.61,5.61,0,0,0,.57,2.74,2.14,2.14,0,0,0,2,1.15A2.09,2.09,0,0,0,1787.81,929.64Z"/><path class="cls-8" d="M1191.74,933a.45.45,0,0,1-.46-.29l-3.14-6.86c0-.07-.08-.1-.17-.1h-2.81c-.1,0-.14,0-.14.15v6.72a.34.34,0,0,1-.39.38h-2a.34.34,0,0,1-.39-.38V916.56c0-.26.13-.38.39-.38h6.5a5.2,5.2,0,0,1,2.59.62,4.23,4.23,0,0,1,1.75,1.73,5,5,0,0,1,.63,2.54,4.6,4.6,0,0,1-.87,2.83,4.24,4.24,0,0,1-2.32,1.59.15.15,0,0,0-.1.09.08.08,0,0,0,0,.1l3.32,6.86,0,.2c0,.17-.11.26-.33.26Zm-6.58-14.42c-.1,0-.14,0-.14.14v4.73a.12.12,0,0,0,.14.14h3.58a2.53,2.53,0,0,0,1.84-.67,2.38,2.38,0,0,0,.72-1.8,2.41,2.41,0,0,0-.72-1.82,2.44,2.44,0,0,0-1.84-.72ZM1202,930.84a3.64,3.64,0,0,0,1.54-.36,3,3,0,0,0,1.08-1,.35.35,0,0,1,.31-.19.36.36,0,0,1,.22.07l1.15.91a.49.49,0,0,1,.17.31.42.42,0,0,1-.08.22,4.79,4.79,0,0,1-1.89,1.73,6,6,0,0,1-2.76.62,5.43,5.43,0,0,1-3.19-.89,5,5,0,0,1-1.85-2.52,8.65,8.65,0,0,1-.48-3,9.76,9.76,0,0,1,.26-2.55,4.92,4.92,0,0,1,1.8-2.71,5.32,5.32,0,0,1,3.27-1q4.48,0,5.25,4.92a18.13,18.13,0,0,1,.17,2,.34.34,0,0,1-.38.39h-7.44c-.1,0-.15,0-.15.14a3.18,3.18,0,0,0,.15,1.06,2.37,2.37,0,0,0,1,1.34A3.37,3.37,0,0,0,1202,930.84Zm-.48-7.9a2.44,2.44,0,0,0-1.51.46,2.22,2.22,0,0,0-.79,1.22,3.41,3.41,0,0,0-.19,1q0,.15.12.15H1204c.1,0,.14,0,.14-.15a6.8,6.8,0,0,0-.14-.86,2.28,2.28,0,0,0-.86-1.32A2.45,2.45,0,0,0,1201.56,922.94Zm12.58,10.2a7.55,7.55,0,0,1-2.67-.43,4.26,4.26,0,0,1-1.75-1.22,2.79,2.79,0,0,1-.62-1.75v-.12a.34.34,0,0,1,.38-.39h1.92c.26,0,.39.06.39.17v.17a1.27,1.27,0,0,0,.64,1,3,3,0,0,0,1.68.44,2.82,2.82,0,0,0,1.56-.39,1.19,1.19,0,0,0,.6-1,.85.85,0,0,0-.5-.81,7.31,7.31,0,0,0-1.58-.6l-.92-.29a13.88,13.88,0,0,1-2.06-.77,4.28,4.28,0,0,1-1.42-1.1,2.86,2.86,0,0,1-.57-1.83,3.17,3.17,0,0,1,1.29-2.66,5.6,5.6,0,0,1,3.48-1,6.37,6.37,0,0,1,2.57.48,3.87,3.87,0,0,1,1.71,1.3,3,3,0,0,1,.62,1.87.29.29,0,0,1-.12.22.47.47,0,0,1-.26.07h-1.85q-.39,0-.39-.15v-.14a1.18,1.18,0,0,0-.62-1,2.78,2.78,0,0,0-1.66-.43,2.94,2.94,0,0,0-1.53.36,1,1,0,0,0-.58,1,1,1,0,0,0,.55.88,10,10,0,0,0,1.85.65l.55.15a17.42,17.42,0,0,1,2.16.76,4,4,0,0,1,1.47,1.11,2.78,2.78,0,0,1,.6,1.85,3.13,3.13,0,0,1-1.35,2.68A6,6,0,0,1,1214.14,933.14Zm17.69-9.24a9.57,9.57,0,0,1,.43,3,9,9,0,0,1-.41,2.93,4.94,4.94,0,0,1-1.7,2.47,4.67,4.67,0,0,1-2.93.89,3.5,3.5,0,0,1-2.73-1.17s-.08-.07-.12,0,0,0,0,.09v5.09a.34.34,0,0,1-.39.39h-2a.34.34,0,0,1-.39-.39v-16c0-.26.13-.38.39-.38h2c.26,0,.39.12.39.38v.62c0,.07,0,.11,0,.12s.08,0,.12-.07a3.37,3.37,0,0,1,2.73-1.25,4.61,4.61,0,0,1,2.88.92A4.87,4.87,0,0,1,1231.83,923.9Zm-3.14,5.88a5.3,5.3,0,0,0,.69-2.92,5.56,5.56,0,0,0-.57-2.74,2.13,2.13,0,0,0-2-1.15,2.07,2.07,0,0,0-1.87,1.13,7.21,7.21,0,0,0,0,5.64,2,2,0,0,0,1.8,1A2.16,2.16,0,0,0,1228.69,929.78Zm11.27,3.41a5.56,5.56,0,0,1-3.27-1,4.93,4.93,0,0,1-1.89-2.66,8.45,8.45,0,0,1-.41-2.74,9.14,9.14,0,0,1,.38-2.73,5,5,0,0,1,1.92-2.62,5.74,5.74,0,0,1,3.29-.94,5.33,5.33,0,0,1,3.15.94,5,5,0,0,1,1.89,2.59,7.77,7.77,0,0,1,.43,2.74,8.61,8.61,0,0,1-.4,2.73,5.18,5.18,0,0,1-1.9,2.69A5.35,5.35,0,0,1,1240,933.19Zm0-2.4a2.37,2.37,0,0,0,1.51-.5,2.67,2.67,0,0,0,.91-1.42,6.17,6.17,0,0,0,.27-2,7.41,7.41,0,0,0-.24-2,2.5,2.5,0,0,0-.94-1.39,2.64,2.64,0,0,0-3.12,0,2.51,2.51,0,0,0-.91,1.39,8.58,8.58,0,0,0,0,4,2.67,2.67,0,0,0,.91,1.42A2.64,2.64,0,0,0,1240,930.79Zm14-10.25a4,4,0,0,1,4.29,4.3v7.78a.34.34,0,0,1-.38.38h-2a.34.34,0,0,1-.38-.38v-7.2a2.47,2.47,0,0,0-.65-1.78,2.14,2.14,0,0,0-1.66-.7,2.25,2.25,0,0,0-1.68.68,2.51,2.51,0,0,0-.62,1.77v7.23a.34.34,0,0,1-.38.38h-2a.33.33,0,0,1-.38-.38v-11.5a.33.33,0,0,1,.38-.38h2a.33.33,0,0,1,.38.38v.65a.14.14,0,0,0,.05.12s.06,0,.09,0A3.55,3.55,0,0,1,1254,920.54Zm11.75,12.6a7.53,7.53,0,0,1-2.66-.43,4.19,4.19,0,0,1-1.75-1.22,2.75,2.75,0,0,1-.63-1.75v-.12a.34.34,0,0,1,.39-.39H1263c.25,0,.38.06.38.17v.17a1.29,1.29,0,0,0,.65,1,3,3,0,0,0,1.68.44,2.82,2.82,0,0,0,1.56-.39,1.19,1.19,0,0,0,.6-1,.86.86,0,0,0-.5-.81,7.22,7.22,0,0,0-1.59-.6l-.91-.29a13.47,13.47,0,0,1-2.06-.77,4.18,4.18,0,0,1-1.42-1.1,2.86,2.86,0,0,1-.58-1.83,3.18,3.18,0,0,1,1.3-2.66,5.6,5.6,0,0,1,3.48-1,6.4,6.4,0,0,1,2.57.48,3.9,3.9,0,0,1,1.7,1.3,3,3,0,0,1,.63,1.87.29.29,0,0,1-.12.22.54.54,0,0,1-.27.07h-1.85c-.25,0-.38,0-.38-.15v-.14a1.2,1.2,0,0,0-.62-1,2.8,2.8,0,0,0-1.66-.43,3,3,0,0,0-1.54.36,1,1,0,0,0-.57,1,1,1,0,0,0,.55.88,9.69,9.69,0,0,0,1.85.65l.55.15a18.68,18.68,0,0,1,2.16.76,4,4,0,0,1,1.46,1.11,2.78,2.78,0,0,1,.6,1.85,3.13,3.13,0,0,1-1.34,2.68A6,6,0,0,1,1265.72,933.14Zm12.78-2.3a3.59,3.59,0,0,0,1.53-.36,3,3,0,0,0,1.08-1,.36.36,0,0,1,.31-.19.34.34,0,0,1,.22.07l1.15.91a.49.49,0,0,1,.17.31.4.4,0,0,1-.07.22,4.88,4.88,0,0,1-1.9,1.73,6,6,0,0,1-2.76.62,5.45,5.45,0,0,1-3.19-.89,5.09,5.09,0,0,1-1.85-2.52,8.65,8.65,0,0,1-.48-3,9.27,9.27,0,0,1,.27-2.55,4.82,4.82,0,0,1,1.8-2.71,5.27,5.27,0,0,1,3.26-1q4.49,0,5.26,4.92a18.44,18.44,0,0,1,.16,2c0,.26-.12.39-.38.39h-7.44c-.1,0-.14,0-.14.14a3.2,3.2,0,0,0,.14,1.06,2.39,2.39,0,0,0,1,1.34A3.33,3.33,0,0,0,1278.5,930.84Zm-.48-7.9a2.47,2.47,0,0,0-1.52.46,2.27,2.27,0,0,0-.79,1.22,3.76,3.76,0,0,0-.19,1q0,.15.12.15h4.82a.13.13,0,0,0,.15-.15,6,6,0,0,0-.15-.86,2.28,2.28,0,0,0-.86-1.32A2.42,2.42,0,0,0,1278,922.94Z"/><path class="cls-8" d="M627.64,933a.45.45,0,0,1-.46-.29L624,925.85c0-.07-.07-.1-.16-.1h-2.81a.13.13,0,0,0-.15.15v6.72a.33.33,0,0,1-.38.38h-2a.34.34,0,0,1-.39-.38V916.56c0-.26.13-.38.39-.38H625a5.22,5.22,0,0,1,2.59.62,4.23,4.23,0,0,1,1.75,1.73,5,5,0,0,1,.63,2.54,4.6,4.6,0,0,1-.87,2.83,4.23,4.23,0,0,1-2.33,1.59.16.16,0,0,0-.09.09.08.08,0,0,0,0,.1l3.31,6.86.05.2c0,.17-.11.26-.33.26Zm-6.58-14.42c-.1,0-.15,0-.15.14v4.73c0,.09.05.14.15.14h3.58a2.53,2.53,0,0,0,1.84-.67,2.38,2.38,0,0,0,.72-1.8,2.41,2.41,0,0,0-.72-1.82,2.44,2.44,0,0,0-1.84-.72Zm16.88,12.26a3.68,3.68,0,0,0,1.54-.36,3.12,3.12,0,0,0,1.08-1,.35.35,0,0,1,.31-.19.36.36,0,0,1,.22.07l1.15.91a.49.49,0,0,1,.17.31.42.42,0,0,1-.08.22,4.79,4.79,0,0,1-1.89,1.73,6,6,0,0,1-2.76.62,5.48,5.48,0,0,1-3.2-.89,5.08,5.08,0,0,1-1.84-2.52,8.65,8.65,0,0,1-.48-3,9.34,9.34,0,0,1,.26-2.55,4.87,4.87,0,0,1,1.8-2.71,5.32,5.32,0,0,1,3.26-1q4.5,0,5.26,4.92a18.13,18.13,0,0,1,.17,2,.34.34,0,0,1-.38.39h-7.44c-.1,0-.15,0-.15.14a3.18,3.18,0,0,0,.15,1.06,2.37,2.37,0,0,0,1,1.34A3.37,3.37,0,0,0,637.94,930.84Zm-.48-7.9a2.44,2.44,0,0,0-1.51.46,2.22,2.22,0,0,0-.79,1.22,3.12,3.12,0,0,0-.19,1q0,.15.12.15h4.82c.1,0,.14,0,.14-.15a6.8,6.8,0,0,0-.14-.86,2.25,2.25,0,0,0-.87-1.32A2.4,2.4,0,0,0,637.46,922.94ZM650,933.14a7.55,7.55,0,0,1-2.67-.43,4.26,4.26,0,0,1-1.75-1.22,2.79,2.79,0,0,1-.62-1.75v-.12c0-.26.12-.39.38-.39h1.92c.26,0,.38.06.38.17v.17a1.29,1.29,0,0,0,.65,1,3,3,0,0,0,1.68.44,2.82,2.82,0,0,0,1.56-.39,1.19,1.19,0,0,0,.6-1,.85.85,0,0,0-.5-.81,7.31,7.31,0,0,0-1.58-.6l-.92-.29a13.88,13.88,0,0,1-2.06-.77,4.28,4.28,0,0,1-1.42-1.1,2.86,2.86,0,0,1-.57-1.83,3.17,3.17,0,0,1,1.29-2.66,5.6,5.6,0,0,1,3.48-1,6.4,6.4,0,0,1,2.57.48,3.78,3.78,0,0,1,1.7,1.3,3,3,0,0,1,.63,1.87.29.29,0,0,1-.12.22.5.5,0,0,1-.26.07h-1.85q-.39,0-.39-.15v-.14a1.18,1.18,0,0,0-.62-1,2.78,2.78,0,0,0-1.66-.43,2.94,2.94,0,0,0-1.53.36,1,1,0,0,0-.58,1,1,1,0,0,0,.55.88,10,10,0,0,0,1.85.65l.55.15a17.42,17.42,0,0,1,2.16.76,4,4,0,0,1,1.47,1.11,2.78,2.78,0,0,1,.6,1.85,3.13,3.13,0,0,1-1.35,2.68A6,6,0,0,1,650,933.14Zm14.52-12a.33.33,0,0,1,.38-.38h2a.33.33,0,0,1,.38.38v11.5a.34.34,0,0,1-.38.38h-2a.34.34,0,0,1-.38-.38V932a.11.11,0,0,0-.07-.12s-.07,0-.1.07a3.48,3.48,0,0,1-2.93,1.23,4.57,4.57,0,0,1-3.07-1.06,3.75,3.75,0,0,1-1.22-3v-8a.33.33,0,0,1,.38-.38h2a.33.33,0,0,1,.38.38v7.2a2.65,2.65,0,0,0,.58,1.8,2.09,2.09,0,0,0,1.65.67,2.28,2.28,0,0,0,1.73-.67,2.5,2.5,0,0,0,.65-1.8ZM670.71,933a.34.34,0,0,1-.39-.38v-16a.34.34,0,0,1,.39-.38h2a.33.33,0,0,1,.38.38v16a.33.33,0,0,1-.38.38Zm11.93-10.39a.34.34,0,0,1-.39.38h-2.33c-.09,0-.14,0-.14.15v5.66a2,2,0,0,0,.38,1.34,1.73,1.73,0,0,0,1.28.41h.62a.34.34,0,0,1,.39.39v1.6a.36.36,0,0,1-.39.41l-1.15,0a5,5,0,0,1-2.83-.65,2.87,2.87,0,0,1-1-2.47v-6.72A.13.13,0,0,0,677,923h-1.25a.34.34,0,0,1-.38-.38v-1.49a.33.33,0,0,1,.38-.38H677a.13.13,0,0,0,.15-.15V917.9a.33.33,0,0,1,.38-.38h1.9a.34.34,0,0,1,.38.38v2.69c0,.1.05.15.14.15h2.33c.26,0,.39.12.39.38Z"/><path class="cls-8" d="M220,223H500a60,60,0,0,1,60,60h0a60,60,0,0,1-60,60H220a60,60,0,0,1-60-60h0A60,60,0,0,1,220,223Z"/><path class="cls-9" d="M246.18,253h55.64c2.31,0,4.18,2.36,4.18,5.26v54.13a4.18,4.18,0,0,1-4.18,4.17H246.18a4.18,4.18,0,0,1-4.18-4.17V258.26C242,255.36,243.87,253,246.18,253Zm42.89,58a6.79,6.79,0,0,0,3.83-12.49,75,75,0,0,0-7.76-4.51,15.94,15.94,0,0,1-6.76,4.73,13.49,13.49,0,0,1-4.38.76,12.8,12.8,0,0,1-4.32-.71,15.16,15.16,0,0,1-6.82-4.73c-1.83.93-4.6,2.5-7.76,4.51A6.76,6.76,0,0,0,258.93,311Zm-29.49-28.49c0-.09-.05-.16-.07-.24-.49-1.78-1-4.29.33-6.08A.69.69,0,0,1,260,276c-.6-3-1.74-11.33,4.53-15.23a3.63,3.63,0,0,1-1.26-2.74s7.42.9,11,.11,7.41,2.12,8.07,4.86a.05.05,0,0,1,.05,0l.06,0c.65,0,6.32.67,4.79,11.16v.15c-.05.52-.1,1.08-.2,1.64a.69.69,0,0,0,.16.22c1.31,1.79.82,4.3.33,6.08,0,.08-.05.15-.07.24a9.49,9.49,0,0,1-2.11,4.22,14.16,14.16,0,0,1-8.4,9.66,9.84,9.84,0,0,1-6.82,0c-4.58-1.68-7.42-6-8.4-9.66A9.49,9.49,0,0,1,259.58,282.51Z"/><path class="cls-3" d="M336.74,250.76a8.29,8.29,0,0,1,4,.94,6.43,6.43,0,0,1,2.66,2.66,8.29,8.29,0,0,1,0,7.82,6.62,6.62,0,0,1-2.77,2.62,8.88,8.88,0,0,1-4.1.9H330.8a.19.19,0,0,0-.21.22v9.5a.51.51,0,0,1-.58.58h-3a.51.51,0,0,1-.58-.58V251.34a.51.51,0,0,1,.58-.58Zm-.61,11.56a4,4,0,0,0,2.95-1.08,3.76,3.76,0,0,0,1.12-2.84,3.93,3.93,0,0,0-1.12-2.92,4,4,0,0,0-2.95-1.12H330.8a.19.19,0,0,0-.21.22v7.52c0,.15.07.22.21.22ZM362.22,276a.61.61,0,0,1-.64-.47l-1.12-3.71c0-.12-.11-.18-.25-.18h-9.43a.23.23,0,0,0-.26.18l-1.11,3.71a.62.62,0,0,1-.65.47h-3.28a.52.52,0,0,1-.43-.18.61.61,0,0,1,0-.47l7.7-24.08a.62.62,0,0,1,.65-.47h4.21a.62.62,0,0,1,.65.47L366,275.35a.61.61,0,0,1,0,.22c0,.29-.16.43-.5.43Zm-10.58-7.88c0,.16,0,.25.18.25h7.34c.15,0,.21-.09.18-.25l-3.7-12.24q0-.15-.15-.15c-.05,0-.09.05-.14.15ZM384.06,276a.68.68,0,0,1-.69-.43l-4.71-10.3c0-.09-.11-.14-.26-.14h-4.21a.19.19,0,0,0-.21.21v10.08a.51.51,0,0,1-.58.58h-3a.51.51,0,0,1-.58-.58V251.34a.51.51,0,0,1,.58-.58h9.75a7.94,7.94,0,0,1,3.89.94,6.37,6.37,0,0,1,2.63,2.59,7.69,7.69,0,0,1,.93,3.82,7,7,0,0,1-1.29,4.25,6.39,6.39,0,0,1-3.49,2.37.23.23,0,0,0-.15.15.12.12,0,0,0,0,.14l5,10.3.07.28c0,.27-.17.4-.51.4Zm-9.87-21.64a.19.19,0,0,0-.21.22v7.09c0,.15.07.22.21.22h5.37a3.84,3.84,0,0,0,2.77-1,3.6,3.6,0,0,0,1.08-2.7,3.65,3.65,0,0,0-1.08-2.74,3.68,3.68,0,0,0-2.77-1.08Zm34.07-3.56a.51.51,0,0,1,.57.58v2.48a.51.51,0,0,1-.57.58h-6.44c-.15,0-.22.07-.22.21v20.77a.51.51,0,0,1-.58.58h-3a.51.51,0,0,1-.58-.58V254.65a.19.19,0,0,0-.21-.21H391a.51.51,0,0,1-.58-.58v-2.48a.51.51,0,0,1,.58-.58Zm5,25.2a.51.51,0,0,1-.58-.58v-24a.51.51,0,0,1,.58-.58h2.88a.76.76,0,0,1,.72.4L427,267.68c0,.1.09.14.14.11s.11-.08.11-.18V251.38a.51.51,0,0,1,.57-.58h3a.51.51,0,0,1,.58.58v24a.51.51,0,0,1-.58.58h-2.95a.74.74,0,0,1-.72-.4L417.05,259c-.05-.1-.11-.13-.18-.11s-.07.08-.07.18l0,16.34a.51.51,0,0,1-.57.58Zm40.07-22.18a.51.51,0,0,1-.57.58h-12.1c-.14,0-.21.07-.21.22v6.66a.19.19,0,0,0,.21.21h8.07a.51.51,0,0,1,.57.58v2.45a.5.5,0,0,1-.57.57h-8.07c-.14,0-.21.07-.21.22v6.87c0,.15.07.22.21.22h12.1a.51.51,0,0,1,.57.58v2.44a.51.51,0,0,1-.57.58H436.86a.51.51,0,0,1-.58-.58v-24a.51.51,0,0,1,.58-.58h15.91a.51.51,0,0,1,.57.58ZM471.84,276a.67.67,0,0,1-.68-.43l-4.72-10.3c0-.09-.11-.14-.25-.14H462c-.15,0-.22.07-.22.21v10.08a.51.51,0,0,1-.58.58h-3a.51.51,0,0,1-.58-.58V251.34a.52.52,0,0,1,.58-.58h9.76a7.9,7.9,0,0,1,3.88.94,6.31,6.31,0,0,1,2.63,2.59,7.59,7.59,0,0,1,.94,3.82,7,7,0,0,1-1.3,4.25,6.35,6.35,0,0,1-3.49,2.37.21.21,0,0,0-.14.15s0,.09,0,.14l5,10.3.07.28c0,.27-.16.4-.5.4ZM462,254.36a.2.2,0,0,0-.22.22v7.09a.19.19,0,0,0,.22.22h5.36a3.82,3.82,0,0,0,2.77-1,3.6,3.6,0,0,0,1.08-2.7,3.7,3.7,0,0,0-3.85-3.82ZM335.45,318.29a10.22,10.22,0,0,1-4.72-1.05,7.73,7.73,0,0,1-3.2-2.95,8.72,8.72,0,0,1-1.12-4.46V293.38a.51.51,0,0,1,.58-.58h3a.51.51,0,0,1,.58.58V309.9a4.67,4.67,0,0,0,1.33,3.46,5.35,5.35,0,0,0,7.06,0,4.71,4.71,0,0,0,1.33-3.46V293.38a.51.51,0,0,1,.57-.58h3a.51.51,0,0,1,.57.58v16.45a8.81,8.81,0,0,1-1.11,4.46,7.54,7.54,0,0,1-3.17,2.95A10.29,10.29,0,0,1,335.45,318.29Zm22.16,0a12.08,12.08,0,0,1-4.82-.9,7.31,7.31,0,0,1-3.17-2.52,6.72,6.72,0,0,1-1.11-3.82v-.75a.51.51,0,0,1,.57-.58h3q.57,0,.57.54v.58a3.39,3.39,0,0,0,1.44,2.77,6.45,6.45,0,0,0,3.89,1.08,5,5,0,0,0,3.31-.94,3,3,0,0,0,1.12-2.41,2.47,2.47,0,0,0-.61-1.69,5.65,5.65,0,0,0-1.77-1.3c-.74-.38-1.87-.86-3.38-1.44a34.46,34.46,0,0,1-4.14-1.76,8,8,0,0,1-2.67-2.23,6,6,0,0,1-1-3.57,6.06,6.06,0,0,1,2.3-5,9.58,9.58,0,0,1,6.16-1.84,11.25,11.25,0,0,1,4.75.94,7.52,7.52,0,0,1,3.24,2.63,6.53,6.53,0,0,1,1.15,3.85v.47a.5.5,0,0,1-.57.57h-3a.77.77,0,0,1-.43-.11.45.45,0,0,1-.14-.32v-.4a3.56,3.56,0,0,0-1.4-2.84,5.67,5.67,0,0,0-3.82-1.19,5.14,5.14,0,0,0-3.1.83,2.77,2.77,0,0,0-1.08,2.34,2.59,2.59,0,0,0,.58,1.76,5.2,5.2,0,0,0,1.73,1.26c.76.36,1.95.83,3.56,1.41a39.53,39.53,0,0,1,4.07,1.76,7.6,7.6,0,0,1,2.63,2.23,5.54,5.54,0,0,1,1.11,3.53,6.54,6.54,0,0,1-1.08,3.71,7.14,7.14,0,0,1-3.09,2.48A12,12,0,0,1,357.61,318.29Zm30.2-22.47a.51.51,0,0,1-.57.58h-12.1a.2.2,0,0,0-.22.22v6.66a.19.19,0,0,0,.22.21h8.06a.51.51,0,0,1,.58.58v2.45a.51.51,0,0,1-.58.57h-8.06a.2.2,0,0,0-.22.22v6.87a.2.2,0,0,0,.22.22h12.1a.51.51,0,0,1,.57.58v2.44a.51.51,0,0,1-.57.58H371.33a.51.51,0,0,1-.58-.58v-24a.51.51,0,0,1,.58-.58h15.91a.51.51,0,0,1,.57.58ZM406.31,318a.66.66,0,0,1-.68-.43l-4.72-10.3c0-.09-.11-.14-.25-.14h-4.21c-.15,0-.22.07-.22.21v10.08a.51.51,0,0,1-.58.58h-3a.51.51,0,0,1-.58-.58V293.34a.52.52,0,0,1,.58-.58h9.76a7.9,7.9,0,0,1,3.88.94,6.31,6.31,0,0,1,2.63,2.59,7.59,7.59,0,0,1,.94,3.82,7,7,0,0,1-1.3,4.25,6.35,6.35,0,0,1-3.49,2.37.21.21,0,0,0-.14.15s0,.09,0,.14l5,10.3.07.28c0,.27-.17.4-.5.4Zm-9.86-21.64a.2.2,0,0,0-.22.22v7.09a.19.19,0,0,0,.22.22h5.36a3.82,3.82,0,0,0,2.77-1,3.6,3.6,0,0,0,1.08-2.7,3.7,3.7,0,0,0-3.85-3.82Z"/><path class="cls-3" d="M263.25,277.9h.16v-.06c-.16-.56-.93-3.76,1.76-5.68,2.19.51,5.54.62,10-1.35,8.67-3.82,9.44,7.09,9.44,7.09h.16c.88,0,1.81.73.83,4.22-.77,2.76-1.48,3.54-2,3.54-.49,3.26-3,7.43-7,8.89a7.62,7.62,0,0,1-5.16,0c-4-1.46-6.53-5.63-7-8.89-.55-.05-1.26-.84-2-3.54C261.44,278.58,262.37,277.9,263.25,277.9Z"/><path class="cls-8" d="M800,223h280a60,60,0,0,1,60,60h0a60,60,0,0,1-60,60H800a60,60,0,0,1-60-60h0A60,60,0,0,1,800,223Z"/><path class="cls-8" d="M1380,223h280a60,60,0,0,1,60,60h0a60,60,0,0,1-60,60H1380a60,60,0,0,1-60-60h0A60,60,0,0,1,1380,223Z"/><path class="cls-3" d="M879.74,273.76a8.29,8.29,0,0,1,4,.94,6.43,6.43,0,0,1,2.66,2.66,8.29,8.29,0,0,1,0,7.82,6.62,6.62,0,0,1-2.77,2.62,8.88,8.88,0,0,1-4.1.9H873.8a.19.19,0,0,0-.21.22v9.5a.51.51,0,0,1-.58.58h-3a.51.51,0,0,1-.58-.58V274.34a.51.51,0,0,1,.58-.58Zm-.61,11.56a4,4,0,0,0,3-1.08,3.76,3.76,0,0,0,1.12-2.84,3.93,3.93,0,0,0-1.12-2.92,4,4,0,0,0-3-1.12H873.8a.19.19,0,0,0-.21.22v7.52c0,.15.07.22.21.22ZM905.22,299a.61.61,0,0,1-.64-.47l-1.12-3.71c0-.12-.11-.18-.25-.18h-9.43a.23.23,0,0,0-.26.18l-1.11,3.71a.62.62,0,0,1-.65.47h-3.28a.52.52,0,0,1-.43-.18.61.61,0,0,1,0-.47l7.7-24.08a.62.62,0,0,1,.65-.47h4.21a.62.62,0,0,1,.65.47L909,298.35a.61.61,0,0,1,0,.22c0,.29-.16.43-.5.43Zm-10.58-7.88c0,.16,0,.25.18.25h7.34c.15,0,.21-.09.18-.25l-3.7-12.24q0-.15-.15-.15s-.09,0-.14.15ZM927.06,299a.68.68,0,0,1-.69-.43l-4.71-10.3c0-.09-.11-.14-.26-.14h-4.21a.19.19,0,0,0-.21.21v10.08a.51.51,0,0,1-.58.58h-3a.51.51,0,0,1-.58-.58V274.34a.51.51,0,0,1,.58-.58h9.75a7.94,7.94,0,0,1,3.89.94,6.37,6.37,0,0,1,2.63,2.59,7.69,7.69,0,0,1,.93,3.82,7,7,0,0,1-1.29,4.25,6.39,6.39,0,0,1-3.49,2.37.23.23,0,0,0-.15.15.12.12,0,0,0,0,.14l5,10.3.07.28c0,.27-.17.4-.51.4Zm-9.87-21.64a.19.19,0,0,0-.21.22v7.09c0,.15.07.22.21.22h5.37a3.84,3.84,0,0,0,2.77-1,3.6,3.6,0,0,0,1.08-2.7,3.65,3.65,0,0,0-1.08-2.74,3.68,3.68,0,0,0-2.77-1.08Zm34.07-3.56a.51.51,0,0,1,.58.58v2.48a.52.52,0,0,1-.58.58h-6.44c-.15,0-.22.07-.22.21v20.77a.51.51,0,0,1-.58.58h-3a.51.51,0,0,1-.58-.58V277.65a.19.19,0,0,0-.21-.21H934a.51.51,0,0,1-.58-.58v-2.48a.51.51,0,0,1,.58-.58Zm5,25.2a.51.51,0,0,1-.58-.58v-24a.51.51,0,0,1,.58-.58h2.88a.76.76,0,0,1,.72.4L970,290.68c0,.1.09.14.14.11s.11-.08.11-.18V274.38a.51.51,0,0,1,.58-.58h3a.51.51,0,0,1,.58.58v24a.51.51,0,0,1-.58.58h-2.95a.74.74,0,0,1-.72-.4L960.05,282c0-.1-.11-.13-.18-.11s-.08.08-.08.18l0,16.34a.51.51,0,0,1-.57.58Zm40.07-22.18a.51.51,0,0,1-.57.58h-12.1c-.14,0-.21.07-.21.22v6.66a.19.19,0,0,0,.21.21h8.07a.51.51,0,0,1,.57.58v2.45a.5.5,0,0,1-.57.57h-8.07c-.14,0-.21.07-.21.22v6.87c0,.15.07.22.21.22h12.1a.51.51,0,0,1,.57.58v2.44a.51.51,0,0,1-.57.58H979.86a.51.51,0,0,1-.58-.58v-24a.51.51,0,0,1,.58-.58h15.91a.51.51,0,0,1,.57.58Zm18.5,22.18a.67.67,0,0,1-.68-.43l-4.72-10.3c0-.09-.11-.14-.25-.14H1005c-.15,0-.22.07-.22.21v10.08a.51.51,0,0,1-.57.58h-3a.51.51,0,0,1-.57-.58V274.34a.51.51,0,0,1,.57-.58h9.76a8,8,0,0,1,3.89.94,6.35,6.35,0,0,1,2.62,2.59,7.59,7.59,0,0,1,.94,3.82,7,7,0,0,1-1.3,4.25,6.35,6.35,0,0,1-3.49,2.37.21.21,0,0,0-.14.15s0,.09,0,.14l5,10.3.07.28c0,.27-.16.4-.5.4ZM1005,277.36a.2.2,0,0,0-.22.22v7.09a.19.19,0,0,0,.22.22h5.36a3.82,3.82,0,0,0,2.77-1,3.6,3.6,0,0,0,1.08-2.7,3.7,3.7,0,0,0-3.85-3.82ZM1045.64,299a.62.62,0,0,1-.65-.47l-1.12-3.71c0-.12-.1-.18-.25-.18h-9.43c-.14,0-.23.06-.25.18l-1.12,3.71a.61.61,0,0,1-.65.47h-3.27a.51.51,0,0,1-.43-.18.57.57,0,0,1,0-.47l7.7-24.08a.63.63,0,0,1,.65-.47H1041a.61.61,0,0,1,.65.47l7.74,24.08a.43.43,0,0,1,0,.22c0,.29-.17.43-.51.43Zm-10.59-7.88c0,.16,0,.25.18.25h7.35c.14,0,.2-.09.18-.25l-3.71-12.24c0-.1-.07-.15-.14-.15s-.1,0-.15.15Zm28.28-17.36a8.35,8.35,0,0,1,4,.94,6.43,6.43,0,0,1,2.66,2.66,8.37,8.37,0,0,1,0,7.82,6.68,6.68,0,0,1-2.77,2.62,9,9,0,0,1-4.11.9h-5.72a.2.2,0,0,0-.22.22v9.5a.51.51,0,0,1-.57.58h-3a.51.51,0,0,1-.57-.58V274.34a.51.51,0,0,1,.57-.58Zm-.61,11.56a4.06,4.06,0,0,0,3-1.08,3.8,3.8,0,0,0,1.12-2.84,3.84,3.84,0,0,0-4.07-4h-5.33a.2.2,0,0,0-.22.22v7.52a.2.2,0,0,0,.22.22Zm22-11.56a8.35,8.35,0,0,1,4,.94,6.43,6.43,0,0,1,2.66,2.66,8.37,8.37,0,0,1,0,7.82,6.68,6.68,0,0,1-2.77,2.62,9,9,0,0,1-4.11.9h-5.72a.2.2,0,0,0-.22.22v9.5a.51.51,0,0,1-.57.58h-3a.51.51,0,0,1-.57-.58V274.34a.51.51,0,0,1,.57-.58Zm-.61,11.56a4.06,4.06,0,0,0,2.95-1.08,3.8,3.8,0,0,0,1.12-2.84,3.84,3.84,0,0,0-4.07-4h-5.33a.2.2,0,0,0-.22.22v7.52a.2.2,0,0,0,.22.22Z"/><path class="cls-9" d="M789.18,251h55.64a4.18,4.18,0,0,1,4.18,4.18v5.35H785v-5.35A4.18,4.18,0,0,1,789.18,251Zm.75,6.22h2.91v-2.91h-2.91Zm9,0H796v-2.91h2.91Zm3.14,0h2.91v-2.91H802Z"/><path class="cls-9" d="M785,310.39a4.18,4.18,0,0,0,4.18,4.17h55.64a4.18,4.18,0,0,0,4.18-4.17V263H785Zm15.6-8.16-2.53-2.53,11.06-11.06-11.06-11.05,2.53-2.53,13.58,13.58Zm34.3-3.06H817.21v3.58H834.9Z"/><path class="cls-9" d="M1383.18,251h55.64c2.31,0,4.18,2.36,4.18,5.26v24.65h-8.4A12.76,12.76,0,0,0,1422.1,270h-4.4a2,2,0,0,0-2,2v3.36H1411a2,2,0,0,0,0,4.08h4.7v7H1411a2,2,0,0,0,0,4.08h4.7V294a2,2,0,0,0,2,2h4.4a12.68,12.68,0,0,0,12.5-10.91h8.4v25.3a4.18,4.18,0,0,1-4.18,4.17h-55.64a4.18,4.18,0,0,1-4.18-4.17V285.05h8.29A12.7,12.7,0,0,0,1399.67,296H1404a2,2,0,0,0,2-2.05v-21.9a2,2,0,0,0-2-2.05h-4.35A12.62,12.62,0,0,0,1387.29,281H1379V256.26C1379,253.36,1380.87,251,1383.18,251Z"/><path class="cls-3" d="M1402,291.91h-2.37a8.91,8.91,0,0,1,0-17.82H1402Z"/><path class="cls-3" d="M1422,291.82h-2.4V274.08h2.4a8.87,8.87,0,0,1,0,17.74Z"/><path class="cls-3" d="M1472.05,299.29a10.29,10.29,0,0,1-4.75-1.05,7.8,7.8,0,0,1-3.17-3,8.67,8.67,0,0,1-1.11-4.43v-8.89a8.65,8.65,0,0,1,1.11-4.43,7.54,7.54,0,0,1,3.17-2.95,10.29,10.29,0,0,1,4.75-1.05,10.6,10.6,0,0,1,4.72,1,7.49,7.49,0,0,1,3.17,2.84,8.07,8.07,0,0,1,1.11,4.25c0,.24-.18.39-.54.43l-3.06.18h-.14c-.29,0-.43-.06-.43-.18v-.21a4.54,4.54,0,0,0-1.34-3.42,4.68,4.68,0,0,0-3.49-1.3,4.84,4.84,0,0,0-3.53,1.3,4.57,4.57,0,0,0-1.33,3.42V291a4.53,4.53,0,0,0,1.33,3.38,4.84,4.84,0,0,0,3.53,1.3,4.77,4.77,0,0,0,3.49-1.26,4.57,4.57,0,0,0,1.34-3.42.33.33,0,0,1,.14-.29.53.53,0,0,1,.43-.11l3,.15q.57.06.57.18v.18a8.32,8.32,0,0,1-1.11,4.32,7.49,7.49,0,0,1-3.17,2.84A10.6,10.6,0,0,1,1472.05,299.29Zm30.54-22.47a.51.51,0,0,1-.57.58h-12.1c-.14,0-.21.07-.21.22v6.66a.19.19,0,0,0,.21.21H1498a.51.51,0,0,1,.57.58v2.45a.5.5,0,0,1-.57.57h-8.07c-.14,0-.21.07-.21.22v6.87c0,.15.07.22.21.22H1502a.51.51,0,0,1,.57.58v2.44a.51.51,0,0,1-.57.58h-15.91a.51.51,0,0,1-.58-.58v-24a.51.51,0,0,1,.58-.58H1502a.51.51,0,0,1,.57.58Zm4.82,22.18a.51.51,0,0,1-.57-.58v-24a.51.51,0,0,1,.57-.58h3a.51.51,0,0,1,.57.58v20.8a.19.19,0,0,0,.22.22h11.88a.51.51,0,0,1,.57.58v2.44a.51.51,0,0,1-.57.58Zm28.09.29a12.08,12.08,0,0,1-4.82-.9,7.25,7.25,0,0,1-3.17-2.52,6.73,6.73,0,0,1-1.12-3.82v-.75a.51.51,0,0,1,.58-.58h3c.39,0,.58.18.58.54v.58a3.39,3.39,0,0,0,1.44,2.77,6.43,6.43,0,0,0,3.89,1.08,5,5,0,0,0,3.31-.94,3,3,0,0,0,1.11-2.41,2.42,2.42,0,0,0-.61-1.69,5.59,5.59,0,0,0-1.76-1.3c-.75-.38-1.87-.86-3.39-1.44a35.93,35.93,0,0,1-4.14-1.76,8.08,8.08,0,0,1-2.66-2.23,5.89,5.89,0,0,1-1-3.57,6,6,0,0,1,2.3-5,9.58,9.58,0,0,1,6.16-1.84,11.25,11.25,0,0,1,4.75.94,7.52,7.52,0,0,1,3.24,2.63,6.53,6.53,0,0,1,1.15,3.85v.47a.51.51,0,0,1-.58.57h-3a.75.75,0,0,1-.43-.11.41.41,0,0,1-.14-.32v-.4a3.54,3.54,0,0,0-1.41-2.84,5.63,5.63,0,0,0-3.81-1.19,5.12,5.12,0,0,0-3.1.83,2.77,2.77,0,0,0-1.08,2.34,2.59,2.59,0,0,0,.58,1.76,5.25,5.25,0,0,0,1.72,1.26q1.15.54,3.57,1.41a39.53,39.53,0,0,1,4.07,1.76,7.57,7.57,0,0,1,2.62,2.23,5.49,5.49,0,0,1,1.12,3.53,6.54,6.54,0,0,1-1.08,3.71,7.11,7.11,0,0,1-3.1,2.48A11.88,11.88,0,0,1,1535.5,299.29Zm13.71-.29a.51.51,0,0,1-.57-.58v-24a.51.51,0,0,1,.57-.58h3a.51.51,0,0,1,.57.58v24a.51.51,0,0,1-.57.58Zm17.67.29a10.22,10.22,0,0,1-4.72-1.05,7.73,7.73,0,0,1-3.2-2.95,8.72,8.72,0,0,1-1.12-4.46V274.38a.51.51,0,0,1,.58-.58h3a.51.51,0,0,1,.58.58V290.9a4.67,4.67,0,0,0,1.33,3.46,5.35,5.35,0,0,0,7.06,0,4.71,4.71,0,0,0,1.33-3.46V274.38a.51.51,0,0,1,.57-.58h3a.51.51,0,0,1,.57.58v16.45a8.81,8.81,0,0,1-1.11,4.46,7.54,7.54,0,0,1-3.17,2.95A10.29,10.29,0,0,1,1566.88,299.29Zm22.16,0a12.08,12.08,0,0,1-4.82-.9,7.31,7.31,0,0,1-3.17-2.52,6.72,6.72,0,0,1-1.11-3.82v-.75a.51.51,0,0,1,.57-.58h3c.39,0,.58.18.58.54v.58a3.39,3.39,0,0,0,1.44,2.77,6.43,6.43,0,0,0,3.89,1.08,5,5,0,0,0,3.31-.94,3,3,0,0,0,1.12-2.41,2.43,2.43,0,0,0-.62-1.69,5.48,5.48,0,0,0-1.76-1.3c-.74-.38-1.87-.86-3.38-1.44a34.46,34.46,0,0,1-4.14-1.76,8,8,0,0,1-2.67-2.23,6,6,0,0,1-1-3.57,6.06,6.06,0,0,1,2.3-5,9.58,9.58,0,0,1,6.16-1.84,11.25,11.25,0,0,1,4.75.94,7.52,7.52,0,0,1,3.24,2.63,6.53,6.53,0,0,1,1.15,3.85v.47a.5.5,0,0,1-.57.57h-3a.77.77,0,0,1-.43-.11.45.45,0,0,1-.14-.32v-.4a3.54,3.54,0,0,0-1.41-2.84,5.63,5.63,0,0,0-3.81-1.19,5.14,5.14,0,0,0-3.1.83,2.77,2.77,0,0,0-1.08,2.34,2.59,2.59,0,0,0,.58,1.76,5.2,5.2,0,0,0,1.73,1.26c.76.36,2,.83,3.56,1.41a39.53,39.53,0,0,1,4.07,1.76,7.6,7.6,0,0,1,2.63,2.23,5.54,5.54,0,0,1,1.11,3.53,6.54,6.54,0,0,1-1.08,3.71,7.14,7.14,0,0,1-3.09,2.48A12,12,0,0,1,1589,299.29Zm36.11-.29a.61.61,0,0,1-.64-.47l-1.12-3.71c0-.12-.11-.18-.25-.18h-9.43a.23.23,0,0,0-.26.18l-1.11,3.71a.62.62,0,0,1-.65.47h-3.28a.52.52,0,0,1-.43-.18.61.61,0,0,1,0-.47l7.7-24.08a.62.62,0,0,1,.65-.47h4.21a.62.62,0,0,1,.65.47l7.74,24.08a.61.61,0,0,1,0,.22c0,.29-.16.43-.5.43Zm-10.58-7.88c0,.16,0,.25.18.25h7.34c.15,0,.21-.09.18-.25l-3.7-12.24q0-.15-.15-.15c-.05,0-.09,0-.14.15Zm28.28-17.36a8.28,8.28,0,0,1,4,.94,6.52,6.52,0,0,1,2.67,2.66,8.37,8.37,0,0,1,0,7.82,6.7,6.7,0,0,1-2.78,2.62,8.88,8.88,0,0,1-4.1.9h-5.72a.2.2,0,0,0-.22.22v9.5a.51.51,0,0,1-.58.58h-3a.51.51,0,0,1-.58-.58V274.34a.52.52,0,0,1,.58-.58Zm-.62,11.56a4.08,4.08,0,0,0,3-1.08,3.79,3.79,0,0,0,1.11-2.84,4,4,0,0,0-1.11-2.92,4,4,0,0,0-3-1.12h-5.32a.2.2,0,0,0-.22.22v7.52a.19.19,0,0,0,.22.22ZM1654.72,299a.51.51,0,0,1-.58-.58v-24a.51.51,0,0,1,.58-.58h3a.51.51,0,0,1,.58.58v24a.51.51,0,0,1-.58.58Z"/><path class="cls-8" d="M1170.66,596.19a7,7,0,0,1-3.17-.69,5.22,5.22,0,0,1-2.11-2,5.67,5.67,0,0,1-.74-3v-5.93a5.7,5.7,0,0,1,.74-3,5.09,5.09,0,0,1,2.11-2,7.66,7.66,0,0,1,6.31,0,5,5,0,0,1,2.12,1.9,5.38,5.38,0,0,1,.74,2.83c0,.16-.12.25-.36.29l-2,.12h-.1c-.19,0-.28,0-.28-.12v-.15a3.06,3.06,0,0,0-.89-2.28,3.17,3.17,0,0,0-2.33-.86,3.24,3.24,0,0,0-2.35.86,3.06,3.06,0,0,0-.89,2.28v6.12a3,3,0,0,0,.89,2.26,3.24,3.24,0,0,0,2.35.86A3.2,3.2,0,0,0,1173,593a3,3,0,0,0,.89-2.28.23.23,0,0,1,.09-.19.37.37,0,0,1,.29-.07l2,.09c.25,0,.38.08.38.12v.12a5.56,5.56,0,0,1-.74,2.88,5,5,0,0,1-2.12,1.9A7,7,0,0,1,1170.66,596.19Zm14.43-12.6a3,3,0,0,1,1.28.27.38.38,0,0,1,.21.48l-.38,2q0,.2-.15.24a.52.52,0,0,1-.31,0,2.32,2.32,0,0,0-.77-.1,2.64,2.64,0,0,0-.45,0,2.44,2.44,0,0,0-1.68.72,2.24,2.24,0,0,0-.67,1.7v6.7a.34.34,0,0,1-.39.38h-2a.34.34,0,0,1-.39-.38v-11.5c0-.26.13-.38.39-.38h2c.26,0,.39.12.39.38v.94c0,.06,0,.1,0,.12s.07,0,.1-.08A3.18,3.18,0,0,1,1185.09,583.59Zm8.58,10.25a3.59,3.59,0,0,0,1.53-.36,3,3,0,0,0,1.08-1,.36.36,0,0,1,.32-.19.31.31,0,0,1,.21.07l1.15.91a.44.44,0,0,1,.17.31.4.4,0,0,1-.07.22,4.81,4.81,0,0,1-1.9,1.73,6,6,0,0,1-2.76.62,5.47,5.47,0,0,1-3.19-.89,5.09,5.09,0,0,1-1.85-2.52,8.65,8.65,0,0,1-.48-3,9.27,9.27,0,0,1,.27-2.55,4.82,4.82,0,0,1,1.8-2.71,5.27,5.27,0,0,1,3.26-1c3,0,4.75,1.64,5.26,4.92.08.53.13,1.19.17,2a.34.34,0,0,1-.39.39h-7.44a.12.12,0,0,0-.14.14,3.49,3.49,0,0,0,.14,1.06,2.39,2.39,0,0,0,1,1.34A3.35,3.35,0,0,0,1193.67,593.84Zm-.48-7.9a2.44,2.44,0,0,0-1.51.46,2.23,2.23,0,0,0-.8,1.22,3.76,3.76,0,0,0-.19,1q0,.15.12.15h4.83c.09,0,.14,0,.14-.15a6.8,6.8,0,0,0-.14-.86,2.34,2.34,0,0,0-.87-1.32A2.4,2.4,0,0,0,1193.19,585.94Zm12.67-2.4a6.31,6.31,0,0,1,2.66.53,4,4,0,0,1,1.8,1.47,3.55,3.55,0,0,1,.63,2.08v8a.34.34,0,0,1-.39.38h-2a.34.34,0,0,1-.39-.38V595c0-.07,0-.1,0-.1a.11.11,0,0,0-.12,0,4.76,4.76,0,0,1-3.46,1.25,4.58,4.58,0,0,1-2.93-.91,3.29,3.29,0,0,1-1.13-2.71,3.53,3.53,0,0,1,1.3-2.91,5.8,5.8,0,0,1,3.7-1H1208c.1,0,.14-.05.14-.15v-.55a1.83,1.83,0,0,0-.57-1.44,2.33,2.33,0,0,0-1.66-.53,2.77,2.77,0,0,0-1.39.32,1.43,1.43,0,0,0-.74.81.38.38,0,0,1-.44.31l-2.16-.26a.61.61,0,0,1-.28-.1.22.22,0,0,1-.08-.21,3.38,3.38,0,0,1,1.59-2.35A6.11,6.11,0,0,1,1205.86,583.54Zm-.55,10.44a3.25,3.25,0,0,0,2-.62,1.9,1.9,0,0,0,.84-1.58v-1.11a.12.12,0,0,0-.14-.14h-2a3.7,3.7,0,0,0-2,.48,1.54,1.54,0,0,0-.74,1.37,1.43,1.43,0,0,0,.57,1.2A2.52,2.52,0,0,0,1205.31,594Zm14.72-8.37a.33.33,0,0,1-.38.38h-2.33c-.09,0-.14,0-.14.15v5.66a2,2,0,0,0,.38,1.34,1.7,1.7,0,0,0,1.27.41h.63a.34.34,0,0,1,.38.39v1.6a.36.36,0,0,1-.38.41l-1.15,0a5.05,5.05,0,0,1-2.84-.65,2.93,2.93,0,0,1-1-2.47v-6.72c0-.1,0-.15-.14-.15h-1.25a.34.34,0,0,1-.38-.38v-1.49a.33.33,0,0,1,.38-.38h1.25c.1,0,.14,0,.14-.15V580.9a.34.34,0,0,1,.39-.38h1.89a.34.34,0,0,1,.39.38v2.69c0,.1,0,.15.14.15h2.33a.33.33,0,0,1,.38.38Zm7.74,8.23a3.68,3.68,0,0,0,1.54-.36,3.12,3.12,0,0,0,1.08-1,.35.35,0,0,1,.31-.19.31.31,0,0,1,.21.07l1.16.91a.47.47,0,0,1,.16.31.4.4,0,0,1-.07.22,4.79,4.79,0,0,1-1.89,1.73,6,6,0,0,1-2.76.62,5.48,5.48,0,0,1-3.2-.89,5.08,5.08,0,0,1-1.84-2.52,8.65,8.65,0,0,1-.48-3,9.34,9.34,0,0,1,.26-2.55,4.82,4.82,0,0,1,1.8-2.71,5.29,5.29,0,0,1,3.26-1q4.5,0,5.26,4.92a18.13,18.13,0,0,1,.17,2,.34.34,0,0,1-.39.39h-7.44a.12.12,0,0,0-.14.14,3.49,3.49,0,0,0,.14,1.06,2.43,2.43,0,0,0,1,1.34A3.35,3.35,0,0,0,1227.77,593.84Zm-.48-7.9a2.44,2.44,0,0,0-1.51.46,2.16,2.16,0,0,0-.79,1.22,3.42,3.42,0,0,0-.2,1q0,.15.12.15h4.83c.09,0,.14,0,.14-.15a6.8,6.8,0,0,0-.14-.86,2.3,2.3,0,0,0-.87-1.32A2.4,2.4,0,0,0,1227.29,585.94Zm18,10.25a5.56,5.56,0,0,1-3.27-1,4.93,4.93,0,0,1-1.89-2.66,8.45,8.45,0,0,1-.41-2.74,9.14,9.14,0,0,1,.38-2.73,5,5,0,0,1,1.92-2.62,5.74,5.74,0,0,1,3.29-.94,5.33,5.33,0,0,1,3.15.94,5,5,0,0,1,1.89,2.59,7.77,7.77,0,0,1,.43,2.74,8.61,8.61,0,0,1-.4,2.73,5.18,5.18,0,0,1-1.9,2.69A5.35,5.35,0,0,1,1245.32,596.19Zm0-2.4a2.37,2.37,0,0,0,1.51-.5,2.67,2.67,0,0,0,.91-1.42,6.17,6.17,0,0,0,.27-2,7.41,7.41,0,0,0-.24-2,2.5,2.5,0,0,0-.94-1.39,2.64,2.64,0,0,0-3.12,0,2.51,2.51,0,0,0-.91,1.39,8.58,8.58,0,0,0,0,4,2.67,2.67,0,0,0,.91,1.42A2.64,2.64,0,0,0,1245.32,593.79Zm13.84-10.2a3,3,0,0,1,1.27.27.4.4,0,0,1,.22.48l-.39,2a.25.25,0,0,1-.14.24.53.53,0,0,1-.31,0,2.36,2.36,0,0,0-.77-.1,2.77,2.77,0,0,0-.46,0,2.44,2.44,0,0,0-1.68.72,2.24,2.24,0,0,0-.67,1.7v6.7a.34.34,0,0,1-.38.38h-2a.33.33,0,0,1-.38-.38v-11.5a.33.33,0,0,1,.38-.38h2a.33.33,0,0,1,.38.38v.94a.14.14,0,0,0,0,.12s.06,0,.09-.08A3.2,3.2,0,0,1,1259.16,583.59Zm15.63.53a.33.33,0,0,1,.38-.38h2a.33.33,0,0,1,.38.38v11.06a5,5,0,0,1-1.73,4.3,7.34,7.34,0,0,1-4.51,1.3,12.88,12.88,0,0,1-1.37-.08c-.22,0-.33-.16-.33-.43l.07-1.77a.33.33,0,0,1,.12-.27.39.39,0,0,1,.31-.07l1.13.05a4,4,0,0,0,2.66-.72,2.89,2.89,0,0,0,.87-2.38V595c0-.07,0-.11,0-.12s-.07,0-.12,0a3.67,3.67,0,0,1-2.76,1,5.47,5.47,0,0,1-2.86-.79,4.19,4.19,0,0,1-1.8-2.43,11.07,11.07,0,0,1-.31-2.9,9.52,9.52,0,0,1,.38-3,4.61,4.61,0,0,1,1.66-2.33,4.45,4.45,0,0,1,2.76-.89,4,4,0,0,1,2.93,1.08c.05,0,.09.07.12,0s0,0,0-.12Zm-.17,7.8a4.59,4.59,0,0,0,.12-.77c0-.29,0-.74,0-1.37a12.25,12.25,0,0,0,0-1.29,3.45,3.45,0,0,0-.15-.79,2.22,2.22,0,0,0-2.28-1.76,2.27,2.27,0,0,0-1.46.48,2.63,2.63,0,0,0-.86,1.28,5.51,5.51,0,0,0-.29,2.11,6.3,6.3,0,0,0,.24,2.09,2.65,2.65,0,0,0,.86,1.27,2.52,2.52,0,0,0,1.54.48,2.28,2.28,0,0,0,1.51-.48A2.36,2.36,0,0,0,1274.62,591.92Zm11.32,1.92a3.64,3.64,0,0,0,1.54-.36,3,3,0,0,0,1.08-1,.35.35,0,0,1,.31-.19.36.36,0,0,1,.22.07l1.15.91a.49.49,0,0,1,.17.31.42.42,0,0,1-.08.22,4.79,4.79,0,0,1-1.89,1.73,6,6,0,0,1-2.76.62,5.43,5.43,0,0,1-3.19-.89,5,5,0,0,1-1.85-2.52,8.65,8.65,0,0,1-.48-3,9.76,9.76,0,0,1,.26-2.55,4.92,4.92,0,0,1,1.8-2.71,5.32,5.32,0,0,1,3.27-1q4.48,0,5.25,4.92a18.13,18.13,0,0,1,.17,2,.34.34,0,0,1-.38.39h-7.44c-.1,0-.15,0-.15.14a3.18,3.18,0,0,0,.15,1.06,2.37,2.37,0,0,0,1,1.34A3.37,3.37,0,0,0,1285.94,593.84Zm-.48-7.9a2.44,2.44,0,0,0-1.51.46,2.22,2.22,0,0,0-.79,1.22,3.41,3.41,0,0,0-.19,1q0,.15.12.15h4.82c.1,0,.14,0,.14-.15a6.8,6.8,0,0,0-.14-.86,2.28,2.28,0,0,0-.86-1.32A2.45,2.45,0,0,0,1285.46,585.94Zm14.26-.33a.34.34,0,0,1-.38.38H1297c-.1,0-.14,0-.14.15v5.66a1.9,1.9,0,0,0,.38,1.34,1.7,1.7,0,0,0,1.27.41h.63a.34.34,0,0,1,.38.39v1.6a.36.36,0,0,1-.38.41l-1.16,0a5,5,0,0,1-2.83-.65,2.93,2.93,0,0,1-1-2.47v-6.72c0-.1,0-.15-.14-.15h-1.25a.33.33,0,0,1-.38-.38v-1.49a.33.33,0,0,1,.38-.38h1.25c.09,0,.14,0,.14-.15V580.9a.34.34,0,0,1,.39-.38h1.89a.34.34,0,0,1,.39.38v2.69c0,.1,0,.15.14.15h2.33a.33.33,0,0,1,.38.38ZM1185,614.12a.33.33,0,0,1,.38-.38h2c.26,0,.39.12.39.38v11.5a.34.34,0,0,1-.39.38h-2a.34.34,0,0,1-.38-.38V625a.13.13,0,0,0-.07-.12s-.07,0-.1.07a3.49,3.49,0,0,1-2.93,1.23,4.57,4.57,0,0,1-3.07-1.06,3.72,3.72,0,0,1-1.22-3v-8a.33.33,0,0,1,.38-.38h2a.33.33,0,0,1,.38.38v7.2a2.65,2.65,0,0,0,.58,1.8,2.09,2.09,0,0,0,1.65.67,2.28,2.28,0,0,0,1.73-.67,2.5,2.5,0,0,0,.65-1.8Zm10.32,12a7.55,7.55,0,0,1-2.67-.43,4.26,4.26,0,0,1-1.75-1.22,2.79,2.79,0,0,1-.62-1.75v-.12a.34.34,0,0,1,.38-.39h1.92c.26,0,.39.06.39.17v.17a1.27,1.27,0,0,0,.64,1,3,3,0,0,0,1.68.44,2.82,2.82,0,0,0,1.56-.39,1.19,1.19,0,0,0,.6-1,.85.85,0,0,0-.5-.81,7.31,7.31,0,0,0-1.58-.6l-.92-.29a13.88,13.88,0,0,1-2.06-.77,4.28,4.28,0,0,1-1.42-1.1,2.86,2.86,0,0,1-.57-1.83,3.17,3.17,0,0,1,1.29-2.66,5.6,5.6,0,0,1,3.48-1,6.37,6.37,0,0,1,2.57.48,3.87,3.87,0,0,1,1.71,1.3,3,3,0,0,1,.62,1.87.29.29,0,0,1-.12.22.47.47,0,0,1-.26.07h-1.85q-.39,0-.39-.15v-.14a1.18,1.18,0,0,0-.62-1,2.78,2.78,0,0,0-1.66-.43,2.94,2.94,0,0,0-1.53.36,1,1,0,0,0-.58,1,1,1,0,0,0,.55.88,10,10,0,0,0,1.85.65l.55.15a17.42,17.42,0,0,1,2.16.76,4,4,0,0,1,1.47,1.11,2.78,2.78,0,0,1,.6,1.85,3.13,3.13,0,0,1-1.35,2.68A6,6,0,0,1,1195.3,626.14Zm12.77-2.3a3.68,3.68,0,0,0,1.54-.36,3.12,3.12,0,0,0,1.08-1,.35.35,0,0,1,.31-.19.31.31,0,0,1,.21.07l1.16.91a.47.47,0,0,1,.16.31.4.4,0,0,1-.07.22,4.79,4.79,0,0,1-1.89,1.73,6,6,0,0,1-2.76.62,5.48,5.48,0,0,1-3.2-.89,5.08,5.08,0,0,1-1.84-2.52,8.65,8.65,0,0,1-.48-3,9.34,9.34,0,0,1,.26-2.55,4.82,4.82,0,0,1,1.8-2.71,5.29,5.29,0,0,1,3.26-1q4.5,0,5.26,4.92a18.13,18.13,0,0,1,.17,2,.34.34,0,0,1-.39.39h-7.44a.12.12,0,0,0-.14.14,3.49,3.49,0,0,0,.14,1.06,2.43,2.43,0,0,0,1,1.34A3.35,3.35,0,0,0,1208.07,623.84Zm-.48-7.9a2.44,2.44,0,0,0-1.51.46,2.16,2.16,0,0,0-.79,1.22,3.42,3.42,0,0,0-.2,1q0,.15.12.15H1210c.09,0,.14,0,.14-.15a6.8,6.8,0,0,0-.14-.86,2.3,2.3,0,0,0-.87-1.32A2.4,2.4,0,0,0,1207.59,615.94Zm13.7-2.35a3,3,0,0,1,1.28.27.38.38,0,0,1,.21.48l-.38,2q0,.2-.15.24a.52.52,0,0,1-.31,0,2.32,2.32,0,0,0-.77-.1,2.64,2.64,0,0,0-.45,0,2.44,2.44,0,0,0-1.68.72,2.24,2.24,0,0,0-.67,1.7v6.7a.34.34,0,0,1-.39.38h-2a.34.34,0,0,1-.39-.38v-11.5c0-.26.13-.38.39-.38h2c.26,0,.39.12.39.38v.94c0,.06,0,.1,0,.12s.07,0,.1-.08A3.18,3.18,0,0,1,1221.29,613.59Zm14.62,2a.33.33,0,0,1-.38.38h-2.33c-.09,0-.14,0-.14.15v5.66a2,2,0,0,0,.38,1.34,1.7,1.7,0,0,0,1.27.41h.63a.34.34,0,0,1,.38.39v1.6a.36.36,0,0,1-.38.41l-1.15,0a5.05,5.05,0,0,1-2.84-.65,2.93,2.93,0,0,1-1-2.47v-6.72c0-.1,0-.15-.14-.15H1229a.34.34,0,0,1-.38-.38v-1.49a.33.33,0,0,1,.38-.38h1.25c.1,0,.14,0,.14-.15V610.9a.34.34,0,0,1,.39-.38h1.89a.34.34,0,0,1,.39.38v2.69c0,.1,0,.15.14.15h2.33a.33.33,0,0,1,.38.38Zm7.47,10.58a5.53,5.53,0,0,1-3.26-1,5,5,0,0,1-1.9-2.66,8.46,8.46,0,0,1-.4-2.74,8.83,8.83,0,0,1,.38-2.73,5,5,0,0,1,1.92-2.62,5.71,5.71,0,0,1,3.29-.94,5.32,5.32,0,0,1,3.14.94,5,5,0,0,1,1.9,2.59,7.77,7.77,0,0,1,.43,2.74,8.6,8.6,0,0,1-.41,2.73,5.22,5.22,0,0,1-1.89,2.69A5.36,5.36,0,0,1,1243.38,626.19Zm0-2.4a2.38,2.38,0,0,0,1.52-.5,2.72,2.72,0,0,0,.91-1.42,6.49,6.49,0,0,0,.26-2,7.41,7.41,0,0,0-.24-2,2.54,2.54,0,0,0-2.49-1.9,2.44,2.44,0,0,0-1.56.51,2.52,2.52,0,0,0-.92,1.39,8.58,8.58,0,0,0,0,4,2.68,2.68,0,0,0,.92,1.42A2.61,2.61,0,0,0,1243.38,623.79Zm8.52,2.21a.34.34,0,0,1-.39-.38v-16a.34.34,0,0,1,.39-.38h2a.34.34,0,0,1,.39.38v8.52c0,.07,0,.11,0,.12a.1.1,0,0,0,.12,0l3.82-4.23a.63.63,0,0,1,.48-.21h2.3a.36.36,0,0,1,.24.07.2.2,0,0,1,.1.17.33.33,0,0,1-.1.24l-3,3.5a.16.16,0,0,0,0,.19l3.55,7.63,0,.2c0,.17-.11.26-.34.26h-2.13a.45.45,0,0,1-.44-.29l-2.59-6c0-.09-.11-.1-.19,0l-1.87,2.18a.29.29,0,0,0-.07.17v3.58a.34.34,0,0,1-.39.38Zm16.78-2.16a3.68,3.68,0,0,0,1.54-.36,3.12,3.12,0,0,0,1.08-1,.35.35,0,0,1,.31-.19.31.31,0,0,1,.21.07l1.16.91a.47.47,0,0,1,.16.31.4.4,0,0,1-.07.22,4.79,4.79,0,0,1-1.89,1.73,6,6,0,0,1-2.76.62,5.48,5.48,0,0,1-3.2-.89,5.08,5.08,0,0,1-1.84-2.52,8.65,8.65,0,0,1-.48-3,9.34,9.34,0,0,1,.26-2.55,4.82,4.82,0,0,1,1.8-2.71,5.29,5.29,0,0,1,3.26-1q4.5,0,5.26,4.92a18.13,18.13,0,0,1,.17,2,.34.34,0,0,1-.39.39h-7.44a.12.12,0,0,0-.14.14,3.49,3.49,0,0,0,.14,1.06,2.43,2.43,0,0,0,1,1.34A3.35,3.35,0,0,0,1268.68,623.84Zm-.48-7.9a2.44,2.44,0,0,0-1.51.46,2.16,2.16,0,0,0-.79,1.22,3.42,3.42,0,0,0-.2,1q0,.15.12.15h4.83c.09,0,.14,0,.14-.15a6.8,6.8,0,0,0-.14-.86,2.3,2.3,0,0,0-.87-1.32A2.4,2.4,0,0,0,1268.2,615.94Zm13.87-2.4a4.22,4.22,0,0,1,3.12,1.16,4.15,4.15,0,0,1,1.18,3.14v7.78a.34.34,0,0,1-.39.38h-2a.34.34,0,0,1-.39-.38v-7.2a2.46,2.46,0,0,0-.64-1.78,2.14,2.14,0,0,0-1.66-.7,2.22,2.22,0,0,0-1.68.68,2.47,2.47,0,0,0-.62,1.77v7.23a.34.34,0,0,1-.39.38h-2a.34.34,0,0,1-.39-.38v-11.5c0-.26.13-.38.39-.38h2c.26,0,.39.12.39.38v.65c0,.06,0,.1,0,.12s.07,0,.1,0A3.53,3.53,0,0,1,1282.07,613.54Z"/></g><text class="cls-10" transform="translate(466.37 109.81)">Segmented Integration Partner Overview</text></svg>